<?xml version="1.0" encoding="utf-8"?>
<!-- Generator: Adobe Illustrator 19.1.0, SVG Export Plug-In . SVG Version: 6.00 Build 0)  -->
<svg version="1.1" xmlns="http://www.w3.org/2000/svg" xmlns:xlink="http://www.w3.org/1999/xlink" x="0px" y="0px"
	 viewBox="0 0 800 600" style="enable-background:new 0 0 800 600;" xml:space="preserve">
<style type="text/css">
	.st0{fill:#89B8E4;stroke:#808080;stroke-width:0.5;stroke-linecap:round;stroke-linejoin:round;}
	.st1{fill:#8EC79A;stroke:#808080;stroke-width:0.5;stroke-linecap:round;stroke-linejoin:round;}
	.st2{fill:#AC8FC7;stroke:#808080;stroke-width:0.5;stroke-linecap:round;stroke-linejoin:round;}
	.st3{fill:#E89BBD;stroke:#808080;stroke-width:0.5;stroke-linecap:round;stroke-linejoin:round;}
	.st4{fill:#F8A758;stroke:#808080;stroke-width:0.5;stroke-linecap:round;stroke-linejoin:round;}
	.st5{fill:#BACE6B;stroke:#808080;stroke-width:0.5;stroke-linecap:round;stroke-linejoin:round;}
	.st6{fill:#FFEB64;stroke:#808080;stroke-width:0.5;stroke-linecap:round;stroke-linejoin:round;}
	.st7{fill:#FBD165;stroke:#808080;stroke-width:0.5;stroke-linecap:round;stroke-linejoin:round;}
	.st8{font-family:'Roboto-Regular';}
	.st9{font-size:14px;}
</style>
<g id="Iraq">
	<path class="st0" d="M383.407,34.888l0.738,0.572l2.22,1.116l2.535,2.08l0.89,0.363l0.699-0.095l1.346-0.514l0.676-0.109
		l0.704,0.109l0.445,0.243l0.997,0.752l1.38,0.562l1.313,0.169l5.589-0.384l1.423,0.134l1.293,0.328l0.541,0.373l1.172,1.145
		l0.4,0.264l0.687-0.183l0.98-1.004l2.924-0.532l1.665-1.92l1.614-2.346l1.995-1.708l2.465-0.392l1.823,0.308l-0.257,0.978
		l0.186,0.331l0.175,0.083l0.13,0.111l0.118,0.293l0.039,0.109l0.085,0.088l0.113,0.067l0.124,0.06l0.101,0.092l0.163,0.088
		l0.073,0.176v0.226l-0.49,0.992l-0.152,0.448l-0.034,0.273l0.017,0.254l0.096,0.391l0.051,0.407l0.101,0.196l0.141,0.12
		l0.203,0.071l0.338,0.01l0.102,0.042l0.084,0.099l0.147,0.78l0.006,0.264l-0.051,0.185l-0.597,0.259l-0.592,0.477l-0.423,0.424
		l-0.654,0.875l-0.169,0.38l-0.034,0.267l0.248,0.47l-0.113,0.194l-0.287,0.216l-0.704,0.282l-1.132,0.605l-0.304,0.273
		l-0.817,1.154l-0.203,0.375l-0.316,0.295l-0.439,0.271l-0.98,0.464l-0.468,0.164l-0.237,0.163l0.096,0.211l0.118,0.148
		l-0.017,0.137l-0.248,0.165l-2.04,0.823l-0.952,0.548l-0.316,0.274l-0.186,0.404l-0.237,0.736l-0.214,0.337l-0.254,0.248
		l-0.445,0.112l-0.744,0.369l-1.082,1.207l-1.718-0.411l-1.521-0.602l-3.82-0.68l-0.625-0.179l-0.964-0.532l-0.259-0.079
		l-0.231-0.016l-0.175,0.058l-0.197,0.137l-0.237,0.253l-0.163,0.237l-0.259,0.559l-0.051,0.19l0.006,0.241l-0.073,0.564
		l-0.197,0.541l-0.135,0.506l-0.034,0.26l0.011,0.237l0.023,0.204l0.152,0.321l0.028,0.188l0.068,0.195l0.141,0.218l0.558,0.404
		l0.276,0.144l0.327,0.088l0.761,0.032l0.422,0.084l0.456,0.246l0.924,0.297l0.338,0.069l0.299,0.133l0.175,0.209l0.135,0.311
		l0.068,0.34l0.045,0.337l-0.017,0.312l-0.096,0.33l-0.456,0.939l-0.259,0.286l-0.248,0.165l-0.299,0.119l-0.039,0.154l0.107,0.403
		l0.028,0.235v0.214l0.006,0.167l0.034,0.167l0.017,0.34l0.051,0.191l0.045,0.247l-0.017,0.352l-0.062,0.424l-0.242,0.761
		l-0.18,0.191l-0.203,0.01l-0.192-0.126l-0.93-0.308l-0.501,0.081l-0.394,0.214l-0.18,0.247l-0.096,0.343v0.387l-0.051,0.329
		l-0.152,0.308l-0.361,0.019l-0.778-0.152l-7.905-2.124l-1.741-0.847l-0.969-0.898l-1.645-1.182l-0.732-0.781l-0.851-0.684
		l-0.834-0.442l-2.073-0.242l-0.873,0.295l-0.766,0.593l-0.4,0.681l-1.673,2.027l-1.6,2.638l-0.479,1.532l-0.496,1.212l-0.242,1.07
		l-0.823,0.574l-1.814,0.94l-2.192,0.189l-7.133,0.979l-4.468,2.49l-0.659-0.152l-0.8,0.005l-0.631,0.126l-0.518,0.39l-0.451,0.822
		l-0.468-1.055l-0.276-0.439l-0.406-0.354l-0.783-0.408l-0.451-0.033l-1.921,0.959l-0.569,0.044l-0.372-0.562l0.135-0.516
		l0.501-0.403l1.223-0.469l-0.479-0.497l-0.428-0.131l-0.44-0.046l-0.513-0.252l-0.958-0.867l-1.656-1.867l-0.484-0.359
		l-0.659-0.147l-0.485,0.137l-0.299,0.306l-0.237,0.305l-0.265,0.137l-2.299-0.042l-0.873-0.454l-0.744-2.069l-0.918-0.682
		l-1.696-0.878l-1.093,0.419l-0.592-0.54l0.253-0.712l1.431-0.095l-0.597-1.129l-0.462-0.505l-0.124-0.628l0.406-1.487l-0.907-0.223
		l-0.039-1.093l0.254-1.362l-0.017-1.032l-1.065,1.218l-0.952,0.021l-0.98-0.725l-2.073-2.042l-0.93-1.461l-0.749-1.609
		l-0.381-1.448l0.021-0.016l-0.017-0.988l-0.31-0.761l-0.411-0.695l-0.349-0.805l2.434-0.283l3.121-1.033l4.693-0.788l0.873-0.391
		l0.186-0.37l0.67-1.852l6.834-9.964l0.208-0.538l0.068-0.473l0.113-0.48l0.338-0.554l0.355-0.247l2.693-1.092L351.678,30
		l0.654,0.079l0.473,0.358l0.237,1.177l0.468,0.344l4.507,1.496l2.197,0.324l2.321-0.797l1.392-1.053l2.09-0.887l2.192-0.586
		l1.696-0.157l0.935,0.265l7.164,3.862l0.377,0.138l0.454,0.063l0.484-0.095l0.51-0.518l0.479-0.22l1.009-0.153l0.654,0.136
		L383.407,34.888z"/>
	<path class="st1" d="M421.922,34.218l1.036,0.175l5.257,2.183l1.223,0.795l0.887,0.918l0.645,1.179l0.465,1.564l0.273,1.493
		l0.059,0.85l-0.07,0.665l-0.448,0.797l-0.541,0.248l-0.622,0.116l-0.699,0.408l-0.913,1.186l-0.468,1.381l-0.034,1.451l0.406,1.406
		l2.197,4.951l0.355,0.711l0.49,0.4l2.265,0.585l0.676-0.053l0.513-0.495l0.504-1.138h0.006l0.008-0.003v-0.007l0.845-1.451
		l0.192-1.066l0.434-0.768l4.631-1.518l1.437-0.788l1.352-1.065l1.318-1.676l1.961-1.842l2.119-1.549l1.747-0.813l1.017-0.046
		l5.716,0.803l1.093,0.551l0.67,1.174l-0.741,1.96l0.008,0.668l0.434,1.203l0.321,0.455l0.386,0.177l0.409,0.127l0.394,0.288
		l0.211,0.443l0.276,1.037l0.251,0.337l0.507,0.109l1.076-0.334l0.527-0.025l0.38,0.214l0.62,0.675l1.189,0.625l0.361,0.611
		l-0.09,0.738l-0.597,0.752l-0.304,1.812l0.31,1.202l0.501,1.107l0.259,1.523l-0.293,1.635l-0.752,1.213l-1.935,2.37l-0.586,1.675
		l0.428,1.181l1.087,0.725l1.42,0.322l1.69-0.095l0.789,0.133l0.682,0.595l0.501,0.599l0.563,0.403l0.637,0.203l0.71,0.021
		l0.913,0.497l0.806,1.092l1.324,2.435l0.58,1.458l-0.087,1.266l-1.059,2.447l-0.583,2.309l-0.051,1.425l-0.163,0.129l-0.676,0.265
		l-0.242,0.164l-0.11,1.075l0.792,1.016l0.197,0.169l-0.002,0.007l-0.22,0.64l-0.299,0.665l-0.738,1.116l-0.608,0.436l-0.783,0.295
		l-1.882-0.134l-2.327-0.581l-1.115,0.026l-1.206,0.267l-2.828,1.42l-2.383,0.631l-2.49,0.396l-1.561-0.457l-0.901-0.131
		l-1.138,0.371l-1.668,1.267l-1.048,1.222l-0.608,0.889l-1.797,1.589l-0.017,1.428l0.304,0.789l3.138,4.778l0.53-0.604l0.355-0.261
		l0.575,0.024l0.541,0.452l2.733,3.304l0.31,0.508l0.152,0.558l-0.507,0.573l-1.268,0.589l-0.423,0.322l-0.282,0.545l-0.304,0.457
		l-0.423,0.424l-1.172,0.945l0.237,0.851l0.293,0.616l5.465,3.886l1.245,0.538l0.648,0.425l0.524,0.428l3.995,4.816l1.718,1.611
		l1.347,0.946l3.696,1.836l0.361,0.443l0.079,0.191l0.017,0.184l-0.028,0.152l-0.084,0.154l-0.118,0.396l-0.107,0.187l-0.349,0.282
		l-0.389,0.14l-0.58,0.083l-1.245-0.035l-0.518-0.147l-0.287-0.187l-0.101-0.147l-0.124-0.08l-0.118-0.094l-0.253-0.266
		l-0.186-0.111l-0.265-0.043l-0.586,0.081l-0.186-0.024l-0.338-0.149l-0.192-0.014l-0.434,0.085l-0.158,0.092l-0.034,0.178
		l0.592,1.092l0.056,0.166l-0.304,0.421l-0.834,0.291l-0.524,0.524l-0.163,0.05l-0.135-0.093l-0.113-0.362l-0.056-0.997
		l-0.101-0.185l-0.169-0.135l-0.203-0.071l-0.169,0.007l-0.231,0.215l-0.152,0.215l-0.09,0.211l-0.051,0.445l-0.045,0.22
		l-0.169,0.149l-0.253-0.028l-0.44-0.35l-0.203-0.305l-0.237-0.263l-0.242-0.097l-0.344-0.028l-0.462,0.17l-0.299,0.197l-0.31,0.118
		l-0.287-0.024l-0.315-0.272l-0.276-0.448l-0.282-0.083l-0.423-0.021l-1.302,0.402l-0.315,0.048l-0.27-0.045l-0.203-0.28
		l-0.017-0.196l0.011-0.164l-0.017-0.159l-0.096-0.145l-0.158-0.104l-0.237-0.007l-0.597,0.346l-0.203,0.035l-0.22-0.22
		l-0.152-0.218l-0.254-0.119l-0.158-0.026l-0.997,0.462l-0.321-0.568v-0.644l-0.169-0.239l-0.18-0.033l-0.586,0.289l-0.253,0.173
		l-0.158,0.222l-0.203,0.509l-0.197,0.329l-0.456,0.376l-0.321,0.341l-0.22,0.306l-0.27,0.291l-0.22-0.042l-0.575-0.374
		l-0.214,0.052l-0.208,0.151l-0.034,0.215l0.051,0.225l0.068,0.215l0.034,0.228l-0.101,0.311l-0.197,0.04l-0.208-0.13l-0.349-0.516
		l-0.225-0.239l-0.4-0.145l-0.327,0.092l-0.473,0.27l-0.248,0.036l-0.158-0.087l-0.147-0.189l-1.2-0.376l-1.166,0.682l-0.473,0.003
		l-0.682-0.114l-0.406,0.048l-0.287,0.201l-0.237,0.235l-0.304,0.185l-1.02,0.438l-0.186,0.142l-0.282,0.578l-0.163,0.031
		l-0.169-0.043l-0.242-0.112l-0.862-0.142l-0.321-0.093l-0.671-0.342l-0.208,0.01l-0.265,0.419l-0.315,0.282l-0.783,0.424
		l-0.535,0.138l-0.445,0.031l-0.315-0.069l-1.031-0.526l-1.194-0.228l-2.992-0.585l-0.913,0.182l-1.256,0.488l-0.794,2.129
		l-0.479,0.992l-0.507,0.318l-1.161,0.214l-2.04,0.079l-5.752-4.11l-1.234-0.458l-0.84,0.157l-0.546,1.479l-3.933,4.26l-3.336,2.816
		l-0.338,0.575l0.039,0.428l0.349,0.306l1.2,1.354l0.338,0.604l0.22,0.611l-0.034,0.745l-0.462,0.609l-0.704,0.654l-0.828,1.018
		l-0.372,0.781l-0.304,1.661l-0.558,1.993l-0.541,0.715l-0.591,0.243l-1.161,0.102l-1.769,1.068l-1.82,0.153l-1.217-0.031
		l-0.738,0.338l-0.53,0.722l-0.637,1.93l-0.473,0.79l-0.862,0.487l-1.065,0.174l-2.332,0.109l-0.84,0.262l-1.082,0.967l-0.552,0.107
		l-0.58-0.021l-1.144-0.315l-0.524-0.246l-2.457-1.563l0.44-0.124l0.13-0.055l0.141-0.208l0.062-0.356l0.056-0.816l0.231-0.889
		l0.068-0.429l0.028-0.603l-0.237-5.189l-0.191-1.014l-0.423-0.79l-0.338-0.362l-0.293-0.166l-0.254-0.045l-0.254-0.104
		l-0.146-0.178l-0.056-0.264l0.152-0.435l0.107-0.523l-0.22-0.835l-0.27-0.64l-0.259-0.404l-0.253-0.283l-0.146-0.221l-0.068-0.25
		l0.22-0.397l0.118-0.292l0.355-1.829l-0.896-2.106l-0.068-0.38l-0.045-0.567l0.214-0.786l1.178-2.706l0.287-0.436l0.304-0.187
		l0.389,0.003l0.428-0.092l0.4-0.394l0.592-1.344l0.49-4.646l-0.006-1.245l-0.186-0.478l-0.704-0.009l-0.89-0.116l-0.58-0.594
		l-0.338-1.688l0.445-0.69l7.065-2.965l0.592-0.555l0.772-1.152l0.158-0.345l0.068-0.325l-0.084-1.326l0.017-0.45l0.118-0.564
		l1.166-2.167l0.146-0.438l0.124-0.481l0.276-0.599l0.192-0.209l0.456-0.066l1.059-0.782l0.625-1.317l0.293-0.784l0.287-0.438
		l1.718-1.56l0.49-0.663l0.637-1.098l0.434-0.588l0.428-0.393l1.234-0.541l0.772-0.921l0.428-0.198l1.009-0.647l0.879-0.815
		l2.287-2.743l0.93-1.58l0.394-1.345l-0.056-0.992l-0.084-0.615l-0.237-0.617l0.034-0.255l0.152-0.171l0.192-0.017l0.608,0.108
		l0.394,0.004l0.394-0.139l0.434-0.241l0.513-0.396l0.186-0.324l0.068-0.359v-0.293l-0.023-0.253l-0.079-0.239l-0.124-0.223
		l-0.113-0.295l-0.034-0.656l0.13-0.286l0.225-0.14l1.375,0.171l0.344-0.012l0.49-0.18l0.254-0.377l0.113-0.422l-0.051-0.82
		l0.068-0.49l0.141-0.183l0.163-0.028l0.175,0.148l0.169,0.183l0.147,0.237l0.276,0.077l0.338-0.108l0.766-0.58l0.378-0.494
		l0.541-0.444l0.214-0.314l0.152-0.272l0.22-0.581l1.38-1.577l0.456-0.376l0.293-0.15l0.146,0.119l0.169,0.063l0.259-0.033
		l0.062-0.159l-0.197-0.318l-0.068-0.245l0.017-0.346l0.13-0.121l0.107,0.021l0.101,0.187l0.062,0.231l0.073,0.189l0.169,0.178
		l0.22,0.129l0.265,0.056l0.254-0.033l0.299-0.107l0.254-0.038l0.242,0.007l0.118,0.073l0.034,0.164l-0.068,0.225l-0.107,0.251
		l-0.051,0.264l0.051,0.243l0.169,0.199l0.36,0.114l0.169-0.084l0.084-0.234l0.017-0.262l0.085-0.363l0.146-0.169l0.186-0.075
		l0.208,0.023l0.197-0.019l0.546-0.255l0.293-0.091l0.276,0.018l0.304,0.086l0.197,0.124l0.09,0.129l-0.017,0.185l0.068,0.199
		l0.214,0.1l0.563-0.103l0.693-0.608l0.941-0.58l1.487-1.342l0.417-0.292l0.93-0.318l0.862-1.35l1.538-1.373l1.949-2.596
		l0.276-0.595l0.028-0.326l-0.045-0.248l-0.102-0.203l-0.118-0.112l-0.124-0.018l-0.13,0.06l-0.135,0.133l-0.124,0.046l-0.146-0.067
		l-0.327-0.763l-0.169-0.501l-0.569-0.588l-0.051-0.308l-0.051-0.578l-0.102-0.27l-0.299-0.289l-0.456-0.275l-0.918-0.722
		l-5.138-2.255l-0.389-0.275l-0.254-0.284l-0.186-0.351l-0.259-0.175l-0.186-0.084l-1.634-0.154l-0.501-0.109l-0.237,0.009
		l-0.242,0.068l-0.417,0.049l-0.203-0.13l-0.451-0.717l-0.051-0.191l0.079-0.182l0.051-0.282l-0.023-0.316l-0.349-0.538l-0.22-0.189
		l-0.237-0.07l-0.203,0.053l-0.89,0.037l-0.124-0.128l0.006-0.13l0.146-0.095l0.22-0.047l0.135-0.107l0.034-0.191l-0.254-0.431
		l-0.152-0.335l-0.068-0.332l-0.282-0.416l-0.327-0.263l-0.699-0.361l-0.761-0.607l-1.104-0.681l-1.211-1.178l-0.287-0.225
		l-0.304-0.083l-0.316,0.074l-1.251-0.277l-3.465-1.881l1.082-1.207l0.744-0.369l0.445-0.112l0.254-0.248l0.214-0.337l0.237-0.736
		l0.186-0.404l0.316-0.274l0.952-0.548l2.04-0.823l0.248-0.165l0.017-0.137l-0.118-0.148l-0.096-0.211l0.237-0.163l0.468-0.164
		l0.98-0.464l0.439-0.271l0.316-0.295l0.203-0.375l0.817-1.154l0.304-0.273l1.132-0.605l0.704-0.282l0.287-0.216l0.113-0.194
		l-0.248-0.47l0.034-0.267l0.169-0.38l0.654-0.875l0.423-0.424l0.592-0.477l0.597-0.259l0.051-0.185l-0.006-0.264l-0.147-0.78
		l-0.084-0.099l-0.102-0.042l-0.338-0.01l-0.203-0.071l-0.141-0.12l-0.101-0.196l-0.051-0.407l-0.096-0.391l-0.017-0.254
		l0.034-0.273l0.152-0.448l0.49-0.992v-0.226l-0.073-0.176l-0.163-0.088l-0.101-0.092l-0.124-0.06l-0.113-0.067l-0.085-0.088
		l-0.039-0.109l-0.118-0.293l-0.13-0.111l-0.175-0.083l-0.186-0.331L421.922,34.218z"/>
	<path class="st2" d="M633.38,511.972l-11.806-5.922l-3.121-0.606h-14.085l-3.138,0.382l-8.784,3.627l-2.857,1.936l-1.865,2.657
		l-4.637,11.807l-1.995,3.716l-0.282,0.897l-0.209,1.887l-0.135,0.629l-1.065,2.343l-4.074,6.73l-1.617,4.234l-0.811,1.22
		l-3.493,3.825l-3.414,5.731l-8.198,9.147l0.009-0.048l0.287-1.531l1.183-12.526l0.434-1.622l0.642-1.422l2.011-3.479l0.231-1.6
		l0.051-7.991l0.676-6.306l4.457-23.684l0.011-1.79l-0.169-1.611l-0.327-1.256l-0.473-1.18l-5.358-7.789l-0.699-1.585l-0.462-1.773
		l-0.879-5.811l-0.907-3.892l17.798-4.863l0.997,0.034l7.561,1.374l1.651-0.306l0.332-1.767l-0.299-4.603l0.079-1.41l0.338-1.798
		l1.386-7.142l0.687-13.158l-0.468-5.254l0.603-3.895l1.02-1.585l1.11-0.933l1.893-0.888l7.561-1.968l2.456-0.203l7.781,0.772
		l7.555,1.928l0.019,0.005l-0.191,15.322l17.914,0.003l0.583,0.353l0.175,0.811l-0.186,30.398l0.085,1.932l5.769,0.823l0.608,0.208
		l0.563,0.351l0.913,0.982l0.699,1.235l0.49,1.371l0.448,2.768l0.239,0.601l0.437,0.461l0.606,0.27l0.642,0.097l0.659-0.026
		l1.995-0.334l0.687,0.032l0.659,0.224l0.51,0.435l1.107,1.844l1.752,1.989l2.118,1.934l0.358,0.532l0.279,0.639l0.104,0.678
		l-0.141,0.668l-0.397,0.542l-0.524,0.47l-0.428,0.522l-0.118,0.697l0.107,0.434l0.682,1.455l1.087,1.228l0.31,0.645l0.149,0.107
		l0.995,3.115l0.113,0.816l0.484,1.22l0.253,0.411l0.355,0.359l0.755,0.595l0.811,0.492l1.687,0.479l0.383,0.174l-0.013,0.036v0.285
		l1.318-0.018l0.235,0.619l-0.674,0.744l-1.437,0.364l-5.922-0.596l-4.166-1.439l-1.956-1.447l-1.903-0.591l-3.021-1.911
		l-2.369-0.818l-2.542-0.466l-2.333-0.041l-2.076,0.551l-3.775,2.054l-0.386-1.647l-0.186-1.897l-0.373-1.737l-0.918-1.176
		l0.67,2.041l0.075,0.765l-0.133,0.811l-0.235,0.76l-0.044,0.673l0.413,0.556L633.38,511.972z"/>
	<path class="st3" d="M557.795,566.212l-1.583,1.764l-2.389,0.507l-2.383,0.507l-0.958,0.203l-1.425,0.302L546.673,570l-5.741-0.516
		l-4.155-0.374l-4.155-0.378l-4.147-0.374l-4.158-0.375l-5.583-0.504l-5.589-0.504l-5.589-0.507l-5.586-0.502l-5.586-0.502
		l-5.589-0.507l-5.584-0.502l-5.589-0.507l-4.341-0.39l-4.336-0.395l-4.338-0.388l-4.35-0.396l-4.986-0.448l-0.358-0.135
		l-0.341-0.138l-0.349-0.138l-0.349-0.132l-4.195-3.371l-5.186-4.182l-5.203-4.182l-5.198-4.188l-5.195-4.188l-6.243-5.04
		l-6.243-5.042l-6.245-5.045l-3.601-2.912l0.699-1.208l11.967-20.898l9.815-28.191l1.938-3.843l2.237-2.913l0.856-0.861l2.699-1.962
		l3.29-1.378l0.372-0.259l2.654-4.141l2.124-2.489l2.53-2.297l2.597-4.593l1.318-3.038l4.124-22.365l9.285,6.826l4.417,2.371
		l1.149-6.607l3.42-9.32l1.696-3.322l0.839-2.289l0.085-0.953l-1.206-0.558l-0.366-0.637l-0.253-0.738l-0.338-0.568l-0.372-0.221
		l-0.969-0.361l-0.524-0.288l-0.62-0.634l1.262-0.145l8.823-2.11l0.558-0.961l3.921,0.13l13.302,2.607l9.651,3.157l2.327-0.031
		l1.183-0.395l0.451-0.487l1.724,1.984l0.304,0.935l-0.068,0.305l-0.034,0.892l0.079,0.847l-0.051,0.466l-0.118,0.311l-0.214,0.086
		l-0.237-0.056l-0.547-0.429l-0.287-0.179l-0.304-0.117l-0.31,0.237l-0.27,0.497l-0.344,1.375l0.017,0.571l0.186,0.368l0.287,0.114
		l0.315,0.074l0.31,0.419l0.287,0.723l0.372,1.945l0.068,0.841l-0.186,0.734l-3.752,4.7l-0.603,1.17l0.141,0.89l1.527,0.269
		l3.003,0.128l-3.133,7.386l-0.614,2.04l0.13,0.678l1.054,0.428l0.208,0.233l0.648,0.518l0.44,0.202l0.327,0.16l0.18,0.644
		l-0.068,1.11l-0.321,1.946l-0.383,0.651l-0.67,0.103l-1.099-0.389l-0.828,0.093l-0.417,0.856l-0.259,1.623l-0.299,1.166
		l-0.225,1.879l-0.315,1.385l0.755,8.831l26.757,3.494l8.761,3.081l5.003,8.245l2.254,4.623l0.586,0.817l0.71,0.545l0.727,0.031
		l1.803-0.43l0.907,3.892l0.879,5.811l0.462,1.773l0.699,1.585l5.358,7.789l0.473,1.18l0.327,1.256l0.169,1.611l-0.011,1.79
		l-4.457,23.684l-0.676,6.306l-0.051,7.991l-0.231,1.6l-2.011,3.479l-0.642,1.422l-0.434,1.622l-1.183,12.526l-0.287,1.531
		L557.795,566.212z"/>
	<path class="st4" d="M473.192,88.363l0.862,0.742l0.699,0.757l0.051,0.956l0.349,0.555l0.468,0.45l0.437,0.649l0.262,0.875
		l0.09,0.666l0.203,0.613l0.625,0.715l1.476,0.694l1.589-0.125l3.054-1.216l1.38,0.101l0.958,1.209l0.586,1.69l0.265,1.561
		l0.138,2.904l0.378,1.173l1.023,1.305l-1.318,0.852l0.31,0.811l1.014,0.793l0.794,0.786l0.253,1.29l-0.135,3.103l0.276,1.414
		l1.69,2.195l0.693,1.357l-0.225,1.346l-0.671,1.065l-0.67,1.381l-0.321,1.384l0.355,1.082v0.01l0.006,0.007l0.011,0.003
		l0.958,0.984l1.172,0.163l1.211-0.409l1.076-0.738l0.003-0.003h0.014l0.006-0.004l0.011-0.01l0.969-0.27l1.809-0.898l1.425-0.024
		l1.208,0.441l2.102,0.768l2.014,1.861l0.704,0.444l1.482,0.281l1.625,1.49l2.527,3.574l1.392,3.453l0.67,0.882l0.98,0.277
		l2.056-0.619l0.609,0.125l0.887,0.605l1.121-0.08l1.053-0.522l1.321-1.131l0.555,0.024l0.561,0.18l0.563,0.059l1.752-0.605
		l3.471,0.159l1.093-0.356l1.054-0.602l0.879-0.332l0.902,0.017l1.679,0.64l0.397,0.066l0.262,0.239l0.27,1.367l0.234,0.464
		l0.332,0.37l0.445,0.367l1.099,0.47l1.169-0.045l2.316-0.505l1.034-0.38l0.932-0.65l0.975-0.481l1.178,0.118l0.907,0.647
		l0.406,0.896l-0.11,1.048l-0.637,1.092l-0.865,0.778l-1.656,1.054l-0.744,1.095l-0.851,0.815l-1.138,0.131l-2.141-0.121
		l-2.733,1.451l-1.121,0.259l-3.814-0.117l-1.121,0.39l-0.693,0.766l-0.431,1.06l-0.192,1.17l-0.003,1.101l0.53,2.566l-0.152,0.921
		l-1.665-0.507h-0.262l-0.248,0.069l0.473,1.348l0.611,1.268l0.211,0.279l0.079,0.283l-0.073,0.272l-0.217,0.265l-0.431,0.331
		l-0.287,0.438l-0.135,0.538l0.023,0.617l0.71,1.922l3.487,5.579l3.014,2.689l1.302,1.506l0.394,1.959l-0.115,0.271l-0.285,0.671
		l-0.676,0.807l-0.484,0.845l0.146,1.047l0.761,0.529l2.113-0.021l0.823,0.69l-0.206,1.747l-1.18,2.014l-0.732,1.873l1.127,1.313
		l-0.434,0.802l-0.586,0.315l-0.676,0.134l-1.386,0.459l-0.975-0.257l-0.549,0.058l-1.462,0.881l-0.8,0.747l-0.865,0.223
		l-1.634-0.706l-0.701,0.055l-0.564-0.233l-1.149-0.744l-0.806-0.278l-0.38,0.154l-0.752,1.24l-0.056,0.312l0.152,0.815
		l-0.113,0.312l-0.327,0.168l-0.766,0.075l-0.358,0.12l-0.578,0.572l-0.265,0.764l-0.011,0.877l0.158,0.904v0.01l0.504,1.715
		l-0.144,1.246l-0.462,1.208l-0.417,1.621l-0.828,1.101l-1.47-0.509l-0.645-0.344l-0.349-0.739l-0.518-6.076l0.068-0.454l0.13-0.11
		l0.152,0.027l0.417-0.041l0.22,0.024l0.242,0.092l0.214,0.044l0.271-0.005l0.242-0.06l0.214-0.079l0.169-0.11l-0.586-0.95
		l-3.73-3.952l-0.304-0.48l-0.254-0.264l-0.417-0.358l-0.361-0.225l-0.355,0.007l-0.321,0.207l-0.484,0.523l-0.073,0.343
		l-0.045,0.449l-0.203,0.339l-0.293,0.415l-0.586,0.685l-0.282,0.432l-0.225,0.534l-0.146,0.25l-0.439,0.209l-0.152,0.096
		l-0.158,0.147l-0.135,0.069l-0.084-0.041l-0.011-0.133l0.011-0.192l-0.045-0.144l-0.124-0.123l-0.18,0.074l-0.208,0.211
		l-0.332,0.603l-0.141,0.354l0.034,0.526l0.141,0.151l0.152,0.034l0.18-0.074l0.118-0.031l0.084,0.108l-0.062,0.214l-0.237,0.491
		l-0.462,0.289l-0.22,0.276l-0.186,0.948l-0.535,0.472l0.118,0.394l0.158,0.046l0.518,0.041l0.203,0.041l0.163,0.082l0.084,0.118
		l0.017,0.144l-0.011,0.188v0.174L507,192.846l-0.287,0.609l-1.256,2.008l-0.445,0.602l-1.403,1.275l-0.163,0.014l-0.18-0.038
		l-0.169,0.02l-0.141,0.133l-0.045,0.352l-0.107,0.328l-0.237,0.41l-0.535,0.583l-0.411,1.01l-0.186,0.772l-0.456,1.216
		l-0.079,0.273l-0.118,0.208l-0.321,0.15l-0.265,0.219l-0.253,0.336l-0.71,1.873l-0.597,1.065l-0.197,0.481l-0.118,0.362l-0.006,0.2
		l-0.062,0.271l-0.006,0.242l0.017,0.222l0.051,0.178l0.034,0.177l-0.028,0.188l-0.141,0.496l-0.135,0.321l-0.625,1.073l-0.18,0.614
		l-0.017,0.193l-0.051,0.176l-0.265,0.336l-0.389,0.322l-1.014,0.571l-0.558,0.223l-0.479,0.113l-0.338,0.007l-0.547,0.123
		l-0.203,0.019l-0.406-0.032l-0.727,0.629l-5.938,7.127l-1.786,1.059l-0.152-1.021l-0.102-0.31l-0.141-0.201l-0.22-0.039
		l-0.169-0.002l-0.197-0.027l-0.422-0.14l-0.158-0.131l-0.13-0.291l-0.006-0.255l0.394-0.722l0.152-0.436l0.085-0.402l0.011-0.363
		l-0.045-0.33l-0.327-0.984l-0.068-0.397l-0.017-0.385l0.073-0.31l0.152-0.293l0.755-0.84l0.242-0.348l0.085-0.254v-0.283
		l-0.614-1.682l-0.304-1.502l-0.051-0.454l-0.011-0.307l0.034-0.321l-0.006-0.413l-0.231-1.488l-0.152-2.336l-0.186-0.599
		l-0.456-0.707l-0.423-0.524l-0.738-0.628l-0.541-0.282l-0.682-0.22l-1.161-0.138l-0.625,0.063l-0.484,0.135l-1.273,0.751
		l-0.315,0.096l-0.372-0.085l-0.349-0.266l-0.524-0.702l-1.133-1.133l-2.902-1.902l-0.135-4.707l0.18-0.89l0.034-0.301l-0.051-0.253
		l-0.135-0.288l-0.659-0.792l-4.688-3.281l-2.04-0.37l-5.967-0.253l-0.935,0.336l-1.228-0.336l-0.896-0.421l-5.499-5.773
		l2.417-2.039l4.248-1.334l0.575-0.561l0.152-0.554l-0.372-0.916l-0.084-0.493l0.034-0.568l0.214-0.604l0.558-0.838l0.659-0.46
		l0.501-0.278l0.406-0.124l0.191-0.295l0.152-0.409l0.152-0.893l0.592-1.409l0.231-1.029l-0.214-0.992l-0.338-1.123l-0.158-0.985
		l0.411-1.302l1.989-2.692l0.558-1.12l0.282-0.931l-0.062-0.761l-1.048-1.436l-1.161-1.306l-0.372-0.668l-0.135-0.655l0.197-1.918
		l0.169-2.398l0.22-0.78l0.118-1.706l0.22-0.704l0.924-1.655l-0.051-1.119l-0.451-1.324l-2.53-2.245l-1.245-1.699l-1.386-1.511
		l-3.009-6.608l0.997-0.462l0.158,0.026l0.254,0.119l0.152,0.218l0.22,0.22l0.203-0.035l0.597-0.346l0.237,0.007l0.158,0.104
		l0.096,0.145l0.017,0.159l-0.011,0.164l0.017,0.196l0.203,0.28l0.27,0.045l0.315-0.048l1.302-0.402l0.423,0.021l0.282,0.083
		l0.276,0.448l0.315,0.272l0.287,0.024l0.31-0.118l0.299-0.197l0.462-0.17l0.344,0.028l0.242,0.097l0.237,0.263l0.203,0.305
		l0.44,0.35l0.253,0.028l0.169-0.149l0.045-0.22l0.051-0.445l0.09-0.211l0.152-0.215l0.231-0.215l0.169-0.007l0.203,0.071
		l0.169,0.135l0.101,0.185l0.056,0.997l0.113,0.362l0.135,0.093l0.163-0.05l0.524-0.524l0.834-0.291l0.304-0.421l-0.056-0.166
		l-0.592-1.092l0.034-0.178l0.158-0.092l0.434-0.085l0.192,0.014l0.338,0.149l0.186,0.024l0.586-0.081l0.265,0.043l0.186,0.111
		l0.253,0.266l0.118,0.094l0.124,0.08l0.101,0.147l0.287,0.187l0.518,0.147l1.245,0.035l0.58-0.083l0.389-0.14l0.349-0.282
		l0.107-0.187l0.118-0.396l0.084-0.154l0.028-0.152l-0.017-0.184l-0.079-0.191l-0.361-0.443l-3.696-1.836l-1.347-0.946l-1.718-1.611
		l-3.995-4.816l-0.524-0.428l-0.648-0.425l-1.245-0.538l-5.465-3.886l-0.293-0.616l-0.237-0.851l1.172-0.945l0.423-0.424
		l0.304-0.457l0.282-0.545l0.423-0.322l1.268-0.589l0.507-0.573l-0.152-0.558l-0.31-0.508l-2.733-3.304l-0.541-0.452l-0.575-0.024
		l-0.355,0.261l-0.53,0.604l-3.138-4.778l-0.304-0.789l0.017-1.428l1.797-1.589l0.608-0.889l1.048-1.222l1.668-1.267l1.138-0.371
		l0.901,0.131l1.561,0.457l2.49-0.396l2.383-0.631l2.828-1.42l1.206-0.267l1.115-0.026l2.327,0.581l1.882,0.134l0.783-0.295
		l0.608-0.436l0.738-1.116l0.299-0.665l0.22-0.64L473.192,88.363z"/>
	<path class="st5" d="M516.077,196.191l-0.978-0.518l-1.262,0.062l-0.361,1.272l0.107,1.678l-0.276,1.613l-1.51,1.049l-1.552,0.164
		l-0.69,0.287l-0.535,0.751l-0.172,0.792l0.127,1.335l-0.169,0.758l-1.516,1.737l-0.417,1.065l0.811,0.921l0.451,0.256l0.49,0.382
		l0.4,0.477l0.192,0.539l0.169,0.702l0.268,0.399l0.279,0.324l0.225,0.46l0.172,1.247l0.025,1.24l0.175,1.118l0.608,0.855
		l0.161,0.429l-0.014,0.705l-0.147,0.701l-0.223,0.426l-0.324,0.068l-1.2-0.422l-3.747-0.296l-1.685-0.405l-1.871-0.984
		l-2.124-0.623l-0.225,1.809l0.453,2.666l-0.076,1.95l-0.259,0.522l-0.31,0.476l-0.355,0.413l-0.394,0.361l-2.862,0.641l-0.53,0.865
		l1.685,5.411l0.699,1.421l1.008,0.744l1.087-0.871l1.217-0.007l1.127,0.717l0.837,1.29l0.299,1.49l-0.11,1.621l-0.727,3.158
		l-0.27,0.592l-0.766,1.241l-0.11,0.607l0.262,0.747l0.4,0.569l0.313,0.564v0.73l-0.555,0.74l-2.203,1.803l-0.8,0.855l-1.33,1.165
		l-0.614,1.454l-0.459,1.671l-0.831,1.818v0.007h-0.011l-0.451,0.465l-0.53,0.362l-1.166,0.527l1.127,1.577l1.237,0.698l1.417,0.091
		l1.611-0.249l0.135,0.02l0.118,0.054l0.101,0.091l4.851,8.804l0.732,0.811l0.84,0.703l0.715,0.786l0.392,1.084l0.234,1.32
		l0.378,1.153l0.547,1.06l0.744,1.058l0.828,0.826l2.569,1.843l0.192,0.504l0.183,0.481l-0.014,2.316l0.372,0.454l0.952-0.237
		l0.896-0.596l1.586-1.525l0.994-0.423l2.648-0.04l1.178-0.293l-0.214,2.002l0.963,0.979l1.155,0.793l0.383,1.44l-0.67,0.981
		l-2.586,1.577l-0.851,1.12l0.935,0.797l1.617,0.378l1.651-0.208l1.009-0.96l0.271-0.151l0.273-0.052l0.279,0.054l0.065,0.039
		l-0.913,1.03l-0.868,1.477l-0.203,0.415l-0.654,2.328l-0.394,0.494l-0.586,0.462l-1.284,0.776l-0.654,0.26l-0.462,0.119
		l-0.299,0.013l-0.327,0.118l-0.434,0.205l-2.552,1.877l-0.58,0.705l-0.456,0.433l-0.642,0.401l-0.828,0.381l-0.237,0.025
		l-0.208-0.05l-0.225-0.104l-0.225-0.057l-0.248,0.119l-0.31,0.332l-0.609,0.931l-1.904,2.281l-0.524,0.758l-0.355,0.704
		l-0.22,0.902l-0.507,1.366l-0.727,1.069l-1.425,1.735l-1.251,1.88l-0.378,0.398l-2.09,1.769l-0.879,0.939l-0.682,0.887l-0.625,0.35
		l-0.445,0.177l-3.166-0.928l-17.088-4.913l-5.291,0.588l-1.916-0.146l-6.282-1.534l-1.634-0.084l-1.065,0.847l-1.211,1.477
		l-1.2,1.769l-2.366,1.821l-0.969,0.955l-0.507,0.773l0.304,0.709l0.175,0.303l0.315,0.977l-0.248,0.1l-0.62,0.515l-0.575,0.224
		l-0.62-0.029l-0.614-0.196l-0.563-0.284l-0.502-0.341l-0.422-0.388l-0.349-0.473l-0.287-0.587l-0.473-1.268l-0.332-0.611
		l-0.389,0.196l-0.389,0.92l-0.541,1.686l-0.541,0.901l-0.265,0.634l-0.208,0.395l-0.237,0.172l-0.152,0.075l-1.211-0.371l0.321-0.9
		l0.023-2.522l-0.203-1.367l-0.428-1.598l-0.975-2.483l-0.682-1.376l0.022-0.765l0.085-2.803l0.524-0.768l0.169-0.166l0.338-0.406
		l0.068-0.251l-0.023-0.277l-0.214-0.456l-0.124-0.543l0.378-1.038v0.587l-0.135,0.201l0.017,0.179l0.197,0.015l0.259-0.161
		l0.169-0.431l0.13-0.481l-0.062-1.961l-0.073-1.926l0.276-0.631l0.051-0.782l0.034-0.151l0.034-0.097l-0.034-0.188l-0.293-0.912
		l-0.135-0.589l-0.079-0.736l-0.225-0.296l-0.186-0.18l-1.713,1.308l-2.034-1.795l-1.087-0.593l-0.541-0.108l-3.904-0.161
		l-0.315-0.057l-0.372,0.447l-0.716,2.287l-2.834,0.771l-0.164,0.045l-1.639-3.604l2.907-4.195l0.811-0.972l1.273-1.181l0.952-0.695
		l2.141-1.909l0.456-1.686l0.169-1.616l-0.625-1.5l0.806-3.526l0.22-0.479l0.761-1.212l0.006-0.285l-0.135-0.266l-1.082-1.092
		l-0.366-0.467l-0.282-0.551l-0.135-0.59l0.006-0.597l0.107-0.594l1.014-2.794l1.865-2.917l0.321-1.142l0.051-1.221l-0.175-1.252
		l-0.423-1.019l-0.648-0.816l-2.524-2.279l-0.49-0.21l-0.332-0.142l-1.454-0.218l-1.493,0.176l-0.439,0.127l-0.389,0.046
		l-0.259-0.056l-0.169-0.169l-0.011-0.543l0.034-0.316l0.609-0.871l0.146-0.815l0.394-1.08l-0.073-0.323l-0.287-0.45l0.09-0.215
		l1.166-0.811l0.214-0.213l0.129-0.416l0.006-0.273l-0.073-0.229l-0.4-0.701l-0.068-0.247l0.101-0.232l0.22-0.188l0.451-0.107
		l0.642-0.02l0.118-0.08l0.068-0.18l-0.051-1.557l-0.113-0.241l-0.118-0.171l-0.006-0.161l0.192-0.137l0.502-0.112l0.659,0.034
		l0.237-0.091l0.225-0.203l0.158-0.419l0.22-0.366l0.186-0.232l0.321-0.054l0.101,0.144l0.017,0.188l-0.135,0.31l0.017,0.097
		l0.101,0.071l0.175,0.017l0.169-0.102l0.118-0.195l0.135-0.534l0.22-0.476l1.132-1.673l0.214-0.146l0.485-0.173l0.625-0.029
		l0.192-0.032l0.186-0.112l0.214-0.17l0.225-0.127l0.169,0.031l0.304,0.344l0.169,0.132l0.152-0.061l0.113-0.271l-0.011-1.201
		l0.101-0.363l0.411-0.271l0.27-0.097l0.192-0.165l0.045-0.258l-0.146-1.303l0.744-0.49l-0.631-0.788l-0.389-0.214l-0.417-0.338
		l-0.502-0.57l-0.304-0.441l-0.152-0.377v-0.285l0.423-0.662l0.541-1.172l0.366-1.227l0.028-0.53l-0.186-0.652l-0.13-0.323
		l-0.062-0.238l0.366-0.386l0.13-0.213l0.186-0.612l0.101-0.224l0.034-0.179l-0.163-0.122l-0.169,0.022l-0.304,0.19l-0.18,0.041
		l-0.209-0.041l-0.113-0.121v-0.19l0.254-0.303l0.118-0.182l0.028-0.153l-0.18-0.109l-0.135,0.044l-0.135,0.109l-0.101,0.058
		l-0.039-0.104l0.039-0.245l0.254-0.447l0.214-0.177l0.253-0.053l0.214-0.02l0.524-0.165l0.186-0.174l0.056-0.248l-0.242-0.52
		l-0.203-0.211l-0.203-0.089l-0.146,0.003l-0.068-0.068l0.068-0.174l0.654-0.592l0.135-0.497l0.022-0.367l-0.828-2.134l0.034-0.616
		l0.051-0.255l0.118-0.359l0.637-0.829l0.225-0.119l0.484,0.272l1.082,0.453l0.839,0.197l0.479,0.228l0.591,0.388l1.989,1.796
		l0.287,0.177l0.163-0.022l0.276-0.79l0.355-0.66l0.603-0.715l0.93-0.797l0.896-0.61l0.778-0.749l0.687-0.939l0.856-1.818
		l0.085-0.968l-0.18-0.775l-0.259-0.39l-0.231-0.419l-0.113-0.406v-0.387l0.259-0.428l0.524-0.478l1.115-0.633l1.538-0.456
		l0.671-0.286l0.777-0.635l1.054-1.08l0.732-1.222l0.225-0.729l-0.039-0.55l-0.062-0.423l0.034-0.437l0.355-0.519l0.637-0.505
		l1.42-0.553l1.792-0.922l2.58-2.366l2.902,1.902l1.133,1.133l0.524,0.702l0.349,0.266l0.372,0.085l0.315-0.096l1.273-0.751
		l0.484-0.135l0.625-0.063l1.161,0.138l0.682,0.22l0.541,0.282l0.738,0.628l0.423,0.524l0.456,0.707l0.186,0.599l0.152,2.336
		l0.231,1.488l0.006,0.413l-0.034,0.321l0.011,0.307l0.051,0.454l0.304,1.502l0.614,1.682v0.283l-0.085,0.254l-0.242,0.348
		l-0.755,0.84l-0.152,0.293l-0.073,0.31l0.017,0.385l0.068,0.397l0.327,0.984l0.045,0.33l-0.011,0.363l-0.085,0.402l-0.152,0.436
		l-0.394,0.722l0.006,0.255l0.13,0.291l0.158,0.131l0.422,0.14l0.197,0.027l0.169,0.002l0.22,0.039l0.141,0.201l0.102,0.31
		l0.152,1.021l1.786-1.059l5.938-7.127l0.727-0.629l0.406,0.032l0.203-0.019l0.547-0.123l0.338-0.007l0.479-0.113l0.558-0.223
		l1.014-0.571l0.389-0.322l0.265-0.336l0.051-0.176l0.017-0.193l0.18-0.614l0.625-1.073l0.135-0.321l0.141-0.496l0.028-0.188
		l-0.034-0.177l-0.051-0.178l-0.017-0.222l0.006-0.242l0.062-0.271l0.006-0.2l0.118-0.362l0.197-0.481l0.597-1.065l0.71-1.873
		l0.253-0.336l0.265-0.219l0.321-0.15l0.118-0.208l0.079-0.273l0.456-1.216l0.186-0.772l0.411-1.01l0.535-0.583l0.237-0.41
		l0.107-0.328l0.045-0.352l0.141-0.133l0.169-0.02l0.18,0.038l0.163-0.014l1.403-1.275l0.445-0.602l1.256-2.008l0.287-0.609
		l0.141-0.421v-0.174l0.011-0.188l-0.017-0.144l-0.084-0.118l-0.163-0.082l-0.203-0.041l-0.518-0.041l-0.158-0.046l-0.118-0.394
		l0.535-0.472l0.186-0.948l0.22-0.276l0.462-0.289l0.237-0.491l0.062-0.214l-0.084-0.108l-0.118,0.031l-0.18,0.074l-0.152-0.034
		l-0.141-0.151l-0.034-0.526l0.141-0.354l0.332-0.603l0.208-0.211l0.18-0.074l0.124,0.123l0.045,0.144l-0.011,0.192l0.011,0.133
		l0.084,0.041l0.135-0.069l0.158-0.147l0.152-0.096l0.439-0.209l0.146-0.25l0.225-0.534l0.282-0.432l0.586-0.685l0.293-0.415
		l0.203-0.339l0.045-0.449l0.073-0.343l0.484-0.523l0.321-0.207l0.355-0.007l0.361,0.225l0.417,0.358l0.254,0.264l0.304,0.48
		l3.73,3.952l0.586,0.95l-0.169,0.11l-0.214,0.079l-0.242,0.06l-0.271,0.005l-0.214-0.044l-0.242-0.092l-0.22-0.024l-0.417,0.041
		l-0.152-0.027l-0.13,0.11l-0.068,0.454l0.518,6.076L516.077,196.191z"/>
	<path class="st1" d="M525.25,288.513l0.206,0.113l0.172,0.096l0.166,0.128l1.831,2.286l0.62,1.122l0.439,1.228l0.166,1.32
		l0.031,1.085l0.282,0.947l1.826,1.759l2.169,3.062l1.735,1.402l0.761,0.771l0.484,1.095l0.011,0.667l-0.33,1.245l-0.037,0.531
		l0.242,0.603l0.631,0.399l0.034,0.586l-0.389,0.833l-0.749,0.913l-1.47,1.457l-1.149,0.867l-0.885,0.176l-0.913-0.07l-1.2,0.107
		l-1.096,0.611l-0.054,0.788l0.761,0.651l2.395,0.274l1.025,0.435l0.786,0.701l0.313,0.887l-0.364,1.099l-0.808,0.838l-0.907,0.734
		l-0.671,0.791v0.01l1.161,2.589l3.192,0.386l6.426-0.72l5.789,1.793l5.434,2.583l1.527,1.536l5.085,2.939l-0.845,1.483
		l-0.507,0.634l-1.211,0.849l-0.406,0.62l-3.544,10.723l-0.338,3.083l0.068,3.917l-0.068,0.691l-0.186,0.653l-0.18,0.925
		l-0.169,0.402l-0.755,1.184l-0.338,0.734l-0.056,0.57l0.479,0.501l0.89,0.727l0.254,0.385l0.214,0.515l-0.079,0.554l-2.293,6.569
		l-0.304,1.157l0.169,0.961l1.008,0.809l6.648,2.869l1.065,1.596l0.654,1.187l-1.465,9.611l-1.149,0.139l-2.057-0.521l-1.961-1.01
		l-2.175-0.261l-6.8,0.255l-14.164,0.051l-1.814,0.618l-0.282,0.253l-0.203,0.486l-0.242,0.127l-0.394,0.012l-0.845-0.164
		l-0.507-0.155l-0.479-0.043l-0.451,0.144l-1.887,1.413l-0.259,0.056l-0.27-0.2l-0.146-0.162l-0.141-0.06l-0.146,0.069l-0.242,0.268
		l-0.214,0.122l-0.214,0.015l-0.254-0.207l-0.293-0.005l-3.341,1.396l-5.465-0.349l-2.569-5.937l-0.028-0.402l0.203-0.293l0.4-0.342
		l-0.169-0.776l-3.758-1.107l-3.437-1.267l-0.868-0.566l-0.524-0.791l-0.671-1.205l-0.997-1.334l-5.42-5.109l-0.817-0.948
		l-0.293-0.963l0.135-0.909l0.721-1.728l0.09-0.605l-0.197-0.531l-1.2-0.36l-0.625-0.959l-3.848-0.46l-1.369-0.584l-0.349-1.022
		l-3.155-0.427l-0.09-1.335l-0.152-2.018l-0.704-0.01l-3.257-0.144l-0.913-0.264l-0.879-0.611l-1.048-1.05l-0.952-1.202l-2.13-4.787
		l-2.333-7.72l-0.338-0.7l-0.738-0.811l-0.777-0.62l-1.403-0.79l-1.769-0.748l-0.287-0.492l-0.473-0.157l-1.989-0.19l-2.755-0.872
		l-3.465-1.979l-0.372-0.088l-7.719-0.545l-0.332-0.125l-0.259-0.204l-0.378-0.354l-0.361-1.021l-0.332-1.592l-0.186-6.551
		l-0.411-1.927l0.913-0.521l1.211,0.371l0.152-0.075l0.237-0.172l0.208-0.395l0.265-0.634l0.541-0.901l0.541-1.686l0.389-0.92
		l0.389-0.196l0.332,0.611l0.473,1.268l0.287,0.587l0.349,0.473l0.422,0.388l0.502,0.341l0.563,0.284l0.614,0.196l0.62,0.029
		l0.575-0.224l0.62-0.515l0.248-0.1l-0.315-0.977l-0.175-0.303l-0.304-0.709l0.507-0.773l0.969-0.955l2.366-1.821l1.2-1.769
		l1.211-1.477l1.065-0.847l1.634,0.084l6.282,1.534l1.916,0.146l5.291-0.588l17.088,4.913l3.166,0.928l0.445-0.177l0.625-0.35
		l0.682-0.887l0.879-0.939l2.09-1.769l0.378-0.398l1.251-1.88l1.425-1.735l0.727-1.069l0.507-1.366l0.22-0.902l0.355-0.704
		l0.524-0.758l1.904-2.281l0.609-0.931l0.31-0.332l0.248-0.119l0.225,0.057l0.225,0.104l0.208,0.05l0.237-0.025l0.828-0.381
		l0.642-0.401l0.456-0.433l0.58-0.705l2.552-1.877l0.434-0.205l0.327-0.118l0.299-0.013l0.462-0.119l0.654-0.26l1.284-0.776
		l0.586-0.462l0.394-0.494l0.654-2.328l0.203-0.415l0.868-1.477L525.25,288.513z"/>
	<path class="st6" d="M559.928,332.16l0.208,0.118l2.504,2.021l3.572,2.152l2.259,2.568l16.412,14.28h0.011l0.003,0.005l1.741,1.276
		l1.659,0.869l1.718,0.377l1.921-0.206l0.963-0.364l2.496-1.378l0.766,0.05l3.087,1.059l1.166,0.613l0.696,0.804l0.611,0.992
		l0.916,1.169l1.456,1.111l0.304,0.47l0.085,0.742l-0.197,0.422l-0.304,0.355l-0.479,1.191l-0.22,0.244l-0.008,0.319l0.363,0.868
		l0.251,0.368l1.625,1.546l0.256,0.353l0.206,0.357l0.963,1.335l0.349,0.366l0.53,0.26l0.293,0.815l1.062,0.809l0.284,0.83
		l-0.084,0.895l-0.29,0.623l-0.324,0.563l-0.214,0.696l-0.113,0.894l0.051,0.507l0.372,0.288l0.854,0.245l0.701,0.444l0.44,0.656
		l0.485,0.549l0.823,0.103l1.054,0.437l0.119,0.17l0.805,1.157l1.242,2.789l0.837,0.956l1.904,0.929l0.538,1.134v0.01l0.256,1.127
		l1.949,3.489l0.372,0.512l0.986,0.644l0.417,0.386l0.304,0.578l0.282,1.119l0.194,0.482l0.876,0.974l2.149,1.614l0.747,1.141
		l0.152,1.356l-0.324,1.444l-8.308,22.542l-0.136,10.88l-0.019-0.005l-7.555-1.928l-7.781-0.772l-2.456,0.203l-7.561,1.968
		l-1.893,0.888l-1.11,0.933l-1.02,1.585l-0.603,3.895l-9.55-0.676l-5.73,0.087l-2.135-1.112l-0.755-0.729l-2.361-1.9l-0.377-0.495
		l-0.197-0.452l-0.118-0.526l-0.068-0.606l0.006-0.669l0.242-2.258l0.023-0.702l-0.056-0.566l-0.175-0.564l-0.327-0.643
		l-0.693-0.935l-0.62-0.617l-0.665-0.514l-4.851-3.017l-0.879-2.625l-0.034-0.591l0.068-0.827l0.569-1.155l0.293-0.784l0.203-1.284
		l-0.141-0.985l-0.4-1.008l-0.58-0.701l-1.752-1.464l-0.896-0.905l-1.696-2.726l-0.327-0.357l-1.69-0.976l-2.135-2.401l-1.256-3.226
		l0.186-0.861l0.073-1.5l-4.214-6.966l-1.426-3.037l0.53-1.074l0.907-0.542l0.896-0.233l-0.09-0.539l-0.67-0.878l-1.217-1.213
		l6.8-0.255l2.175,0.261l1.961,1.01l2.057,0.521l1.149-0.139l1.465-9.611l-0.654-1.187l-1.065-1.596l-6.648-2.869l-1.008-0.809
		l-0.169-0.961l0.304-1.157l2.293-6.569l0.079-0.554l-0.214-0.515l-0.254-0.385l-0.89-0.727l-0.479-0.501l0.056-0.57l0.338-0.734
		l0.755-1.184l0.169-0.402l0.18-0.925l0.186-0.653l0.068-0.691l-0.068-3.917l0.338-3.083l3.544-10.723l0.406-0.62l1.211-0.849
		l0.507-0.634L559.928,332.16z"/>
	<path class="st0" d="M153.57,377.457l-0.011-0.493l6.558-5.577l1.392-2.03l-1.138-4.327l-0.806-1.972l-1.121-0.654l-10.327,2.848
		l-0.552-0.312l-0.406-0.962l-2.659-9.238l-0.073-0.105l-0.023-0.08l0.023-0.047l0.073-0.023l4.209-1.321l-3.662-13.458
		l-2.575-9.471l-2.485-9.179l-1.887-6.886l-2.265-8.317l-2.535-9.261l6.029-3.602l6.029-3.601l6.029-3.608l6.029-3.607l6.029-3.61
		l6.029-3.61l6.029-3.614l6.028-3.612l6.023-3.621l6.034-3.62l6.023-3.622l6.029-3.626l3.906-2.352l2.122-1.278l6.029-3.629
		l6.029-3.632l6.029-3.639l7.995-4.828l13.387-3.587l1.594-1.038l1.24-1.754l1.961-4.321v-0.01l9.358-18.08l0.468-1.629l0.124-1.732
		l-0.462-11.562l-0.311-10.932l1.168,0.034l7.003,0.657l9.212,2.644l3.662,0.584l14.925,6.17l7.2,2.815l3.549,0.228l7.663-0.999
		l0.986,0.209l1.91,0.9l1.651,0.712l11.882-1.608l0.389,0.931l0.079,14.455l2.175,9.552l10.581,8.685l2.366,1.343l1.741,0.24
		l6.519-3.718l1.031,5.633l0.253,4.088l0.428,1.963l1.392,2.01l0.828,3.51l0.541,3.464l2.857,6.936l3.741,4.983l8.739,8.773
		l7.493,6.532l2.885,1.076l5.854,0.979l6.699,2.685l4.941,1.636l9.144-0.227l1.651,0.493l1.899,1.728l0.851,0.93l1.003,1.862
		l1.707,4.263l1.194,2.058l0.541,0.599l-1.825,1.422l2.028,0.602l1.848,1.282l4.017,0.24l1.639,3.604l0.164-0.045l0.073,0.288
		l0.006,0.332l-0.518,1.266l-1.724,1.849l-0.648,1.275l-0.22,1.25l0.011,1.363l0.259,1.319l0.541,1.118l0.637,0.63l1.459,0.915
		l0.637,0.689l-1.628,2.281l-0.992,0.976l-1.149,0.328l-1.194-0.367l-3.488-2.056l-1.358-0.409l-1.313-0.184l-5.183-0.033
		l-4.828-1.275l-2.473-0.325l-1.845,0.251l0.273,1.368l0.727,0.909l2.688,0.668l5.302,2.669l1.662,1.664l1.307,3.842l0.969,4.845
		l0.676,1.741l1.493,1.7l2.378,1.654l-0.614,6.144l-9.347-2.882l-6.243,0.005l-4.614,0.576l-4.321,2.108l-10.198,8.995l-1.476,0.967
		l-0.597,0.17l-1.161,0.163l-6.677,0.942l-2.558,0.97l-2.902,1.532l0.378,1.949l1.318,1.967l12.84,12.975l8.992,6.723l2.631,2.243
		l5.736,5.447l-0.056,1.262l-0.287,1.917l-0.964,1.159l-0.935,0.891l-5.071,2.808l-1.392,1.118l-0.727,0.453l-0.879,0.322
		l-3.476,0.543l-0.642,0.272l-1.623,1.068l-0.423,0.101l-1.138,0.101l-0.885,0.418l-1.008,0.769l-1.572,1.705l-8.485,12.554
		l-0.778,1.401l-0.068,2.035l-0.304,1.784l-0.806,2.354l-5.786,12.382l-0.507,1.538l-0.152,1.096v0.835l0.101,0.544l0.203,0.453
		l0.045,0.94l-0.231,1.359l-2.147,5.648l-0.18,0.793l-0.372,3.102l-0.361,1.33l-0.4,0.87l-3.071,4.329l-1.871,3.202l-0.411,0.949
		l-0.186,0.622l-0.67,5.574l-0.693,2.213l-1.623,3.896l-3.538,6.578l-1.414,3.382l-0.409,0.64l-1.062-0.919l-5.167-4.478
		l-5.161-4.475l-5.167-4.481l-4.609-3.975l-4.603-3.978l-4.603-3.98l-4.614-3.983l-3.612-3.132l-4.862-2.878l-4.778-2.833
		l-4.789-2.835l-4.778-2.836l-4.778-2.834l-4.789-2.839l-4.783-2.84l-4.778-2.841l-4.778-2.843l-4.789-2.847l-4.778-2.846
		l-4.783-2.844l-4.783-2.848l-4.778-2.85l-4.783-2.854l-4.789-2.846l-4.778-2.857l-5.606-3.347l-3.037-1.77l-2.935-1.146
		l-18.587-3.576l-0.011-0.003l-0.006-0.003h-0.011l-4.372-0.744l-10.772-1.842l-10.778-1.846l-10.778-1.846l-10.784-1.844
		l-0.152,0.05l-0.152,0.053l-0.158,0.053L153.57,377.457z"/>
	<path class="st7" d="M408.566,523.239l-2.645-2.14l-6.243-5.056l-6.248-5.057l-6.248-5.061l-6.243-5.065l-4.806-3.901l-4.803-3.904
		l-4.8-3.903l-4.806-3.912l-5.764-4.689l-0.006-0.003l-0.006-0.003l-0.006-0.003l-4.104-3.549l0.409-0.64l1.414-3.382l3.538-6.578
		l1.623-3.896l0.693-2.213l0.67-5.574l0.186-0.622l0.411-0.949l1.871-3.202l3.071-4.329l0.4-0.87l0.361-1.33l0.372-3.102l0.18-0.793
		l2.147-5.648l0.231-1.359l-0.045-0.94l-0.203-0.453l-0.101-0.544v-0.835l0.152-1.096l0.507-1.538l5.786-12.382l0.806-2.354
		l0.304-1.784l0.068-2.035l0.778-1.401l8.485-12.554l1.572-1.705l1.008-0.769l0.885-0.418l1.138-0.101l0.423-0.101l1.623-1.068
		l0.642-0.272l3.476-0.543l0.879-0.322l0.727-0.453l1.392-1.118l5.071-2.808l0.935-0.891l0.964-1.159l0.287-1.917l0.056-1.262
		l-5.736-5.447l25.41-7.278l5.088-1.584l1.42-0.169l0.653,0.576l0.456,0.277l0.259-0.348l0.248-0.715l0.09-0.391l0.659-1.611
		l0.772,3.075l0.372,0.615l0.338,0.34l-0.22,1.098l-1.318,0.743l-0.4,0.646l0.085,0.699l0.434,1.191l1.031,1.65l0.355,0.414
		l0.406,0.623l0.271,0.547l0.828,1.106l1.938-1.851l1.133-0.772l0.248,0.015l0.451-0.089l0.423,0.045l2.682-1.918l1.487,0.787
		l1.217,1.027l1.623,0.928l2.766,0.902l-0.8,2.577l-0.18,0.258l-0.231,0.267l-0.259,0.01l-0.338,0.069l-0.552,0.346l-0.141,0.334
		l0.006,0.391l0.203,0.425l0.254,0.399l0.332,0.321l0.479,0.384l0.327,0.419l-0.011,0.286l-0.287,0.198l-1.572,0.595l-1.989,1.326
		l-1.065,0.427l-0.439,0.646l-0.456,1.549l-0.383,2.006l1.826,9.049l-0.22,2.075l-0.034,4.022l0.727,4.765l-1.065,1.516
		l-0.935-0.548l-1.493-0.573l-1.155,0.28l-1.211,1.368l-0.27,1.491l1.177,2.158l3.549,4.186l1.014,0.657l10.485,4.313l-4.124,22.365
		l-1.318,3.038l-2.597,4.593l-2.53,2.297l-2.124,2.489l-2.654,4.141l-0.372,0.259l-3.29,1.378l-2.699,1.962l-0.856,0.861
		l-2.237,2.913l-1.938,3.843l-9.815,28.191l-11.967,20.898L408.566,523.239z"/>
	<path class="st7" d="M329.673,51.369l0.381,1.448l0.749,1.609l0.93,1.461l2.073,2.042l0.98,0.725l0.952-0.021l1.065-1.218
		l0.017,1.032l-0.254,1.362l0.039,1.093l0.907,0.223l-0.406,1.487l0.124,0.628l0.462,0.505l0.597,1.129l-1.431,0.095l-0.253,0.712
		l0.592,0.54l1.093-0.419l1.696,0.878l0.918,0.682l0.744,2.069l0.873,0.454l2.299,0.042l0.265-0.137l0.237-0.305l0.299-0.306
		l0.485-0.137l0.659,0.147l0.484,0.359l1.656,1.867l0.958,0.867l0.513,0.252l0.44,0.046l0.428,0.131l0.479,0.497l-1.223,0.469
		l-0.501,0.403l-0.135,0.516l0.372,0.562l0.569-0.044l1.921-0.959l0.451,0.033l0.783,0.408l0.406,0.354l0.276,0.439l0.468,1.055
		l0.451-0.822l0.518-0.39l0.631-0.126l0.8-0.005l0.659,0.152l4.468-2.49l7.133-0.979l2.192-0.189l1.814-0.94l0.823-0.574l0.242-1.07
		l0.496-1.212l0.479-1.532l1.6-2.638l1.673-2.027l0.4-0.681l0.766-0.593l0.873-0.295l2.073,0.242l0.834,0.442l0.851,0.684
		l0.732,0.781l1.645,1.182l0.969,0.898l1.741,0.847l7.905,2.124l0.778,0.152l0.361-0.019l0.152-0.308l0.051-0.329v-0.387
		l0.096-0.343l0.18-0.247l0.394-0.214l0.501-0.081l0.93,0.308l0.192,0.126l0.203-0.01l0.18-0.191l0.242-0.761l0.062-0.424
		l0.017-0.352l-0.045-0.247l-0.051-0.191l-0.017-0.34l-0.034-0.167l-0.006-0.167v-0.214l-0.028-0.235l-0.107-0.403l0.039-0.154
		l0.299-0.119l0.248-0.165l0.259-0.286l0.456-0.939l0.096-0.33l0.017-0.312l-0.045-0.337l-0.068-0.34l-0.135-0.311l-0.175-0.209
		l-0.299-0.133l-0.338-0.069l-0.924-0.297l-0.456-0.246l-0.422-0.084l-0.761-0.032l-0.327-0.088l-0.276-0.144l-0.558-0.404
		l-0.141-0.218l-0.068-0.195l-0.028-0.188l-0.152-0.321l-0.023-0.204l-0.011-0.237l0.034-0.26l0.135-0.506l0.197-0.541l0.073-0.564
		l-0.006-0.241l0.051-0.19l0.259-0.559l0.163-0.237l0.237-0.253l0.197-0.137l0.175-0.058l0.231,0.016l0.259,0.079l0.964,0.532
		l0.625,0.179l3.82,0.68l1.521,0.602l1.718,0.411l3.465,1.881l1.251,0.277l0.316-0.074l0.304,0.083l0.287,0.225l1.211,1.178
		l1.104,0.681l0.761,0.607l0.699,0.361l0.327,0.263l0.282,0.416l0.068,0.332l0.152,0.335l0.254,0.431l-0.034,0.191l-0.135,0.107
		l-0.22,0.047l-0.146,0.095l-0.006,0.13l0.124,0.128l0.89-0.037l0.203-0.053l0.237,0.07l0.22,0.189l0.349,0.538l0.023,0.316
		l-0.051,0.282l-0.079,0.182l0.051,0.191l0.451,0.717l0.203,0.13l0.417-0.049l0.242-0.068l0.237-0.009l0.501,0.109l1.634,0.154
		l0.186,0.084l0.259,0.175l0.186,0.351l0.254,0.284l0.389,0.275l5.138,2.255l0.918,0.722l0.456,0.275l0.299,0.289l0.102,0.27
		l0.051,0.578l0.051,0.308l0.569,0.588l0.169,0.501l0.327,0.763l0.146,0.067l0.124-0.046l0.135-0.133l0.13-0.06l0.124,0.018
		l0.118,0.112l0.102,0.203l0.045,0.248l-0.028,0.326l-0.276,0.595l-1.949,2.596l-1.538,1.373l-0.862,1.35l-0.93,0.318l-0.417,0.292
		l-1.487,1.342l-0.941,0.58l-0.693,0.608l-0.563,0.103l-0.214-0.1l-0.068-0.199l0.017-0.185l-0.09-0.129l-0.197-0.124l-0.304-0.086
		l-0.276-0.018l-0.293,0.091l-0.546,0.255l-0.197,0.019l-0.208-0.023l-0.186,0.075l-0.146,0.169l-0.085,0.363l-0.017,0.262
		l-0.084,0.234l-0.169,0.084l-0.36-0.114l-0.169-0.199l-0.051-0.243l0.051-0.264l0.107-0.251l0.068-0.225l-0.034-0.164l-0.118-0.073
		l-0.242-0.007l-0.254,0.038l-0.299,0.107l-0.254,0.033l-0.265-0.056l-0.22-0.129l-0.169-0.178l-0.073-0.189l-0.062-0.231
		l-0.101-0.187l-0.107-0.021l-0.13,0.121l-0.017,0.346l0.068,0.245l0.197,0.318l-0.062,0.159l-0.259,0.033l-0.169-0.063
		l-0.146-0.119l-0.293,0.15l-0.456,0.376l-1.38,1.577l-0.22,0.581l-0.152,0.272l-0.214,0.314l-0.541,0.444l-0.378,0.494l-0.766,0.58
		l-0.338,0.108l-0.276-0.077l-0.147-0.237l-0.169-0.183l-0.175-0.148l-0.163,0.028l-0.141,0.183l-0.068,0.49l0.051,0.82
		l-0.113,0.422l-0.254,0.377l-0.49,0.18l-0.344,0.012l-1.375-0.171l-0.225,0.14l-0.13,0.286l0.034,0.656l0.113,0.295l0.124,0.223
		l0.079,0.239l0.023,0.253V91.1l-0.068,0.359l-0.186,0.324l-0.513,0.396l-0.434,0.241l-0.394,0.139l-0.394-0.004l-0.608-0.108
		l-0.192,0.017l-0.152,0.171l-0.034,0.255l0.237,0.617l0.084,0.615l0.056,0.992l-0.394,1.345l-0.93,1.58l-2.287,2.743l-0.879,0.815
		l-1.009,0.647l-0.428,0.198l-0.772,0.921l-1.234,0.541l-0.428,0.393l-0.434,0.588l-0.637,1.098l-0.49,0.663l-1.718,1.56
		l-0.287,0.438l-0.293,0.784l-0.625,1.317l-1.059,0.782l-0.456,0.066l-0.192,0.209l-0.276,0.599l-0.124,0.481l-0.146,0.438
		l-1.166,2.167l-0.118,0.564l-0.017,0.45l0.084,1.326l-0.068,0.325l-0.158,0.345l-0.772,1.152l-0.592,0.555l-7.065,2.965
		l-0.445,0.69l0.338,1.688l0.58,0.594l0.89,0.116l0.704,0.009l0.186,0.478l0.006,1.245l-0.49,4.646l-0.592,1.344l-0.4,0.394
		l-0.428,0.092l-0.389-0.003l-0.304,0.187l-0.287,0.436l-1.178,2.706l-0.214,0.786l0.045,0.567l0.068,0.38l0.896,2.106l-0.53,0.49
		l-0.113,0.496l-0.208,0.967l-0.547,0.297l-0.727,0.06l-0.783,0.25l-0.417,0.508l-0.817,1.467l-0.766,0.594l-1.07,0.314
		l-1.042,0.732l-3.572,1.49l-6.586,4.51l-0.941,0.074l-0.439,0.14l-0.541,0.334l-1.268,1.075l-0.676,0.445l-1.549,0.699
		l-0.186,0.016l-0.135-0.016l-0.096,0.021l-0.09,0.067l-0.118,0.04l-0.169-0.024l-0.197,0.007l-0.208-0.022l-0.152,0.081
		l-0.169,0.193l-0.169,0.269l-0.186,0.381l-0.186,0.145l-0.101,0.114l-0.028,0.093l0.485,0.768l0.541,1.284l0.118,0.458
		l-0.096,0.404l-0.293,0.58l-0.231,0.353l-0.085,0.182l-0.158,0.888l0.034,0.444l0.118,0.506l0.27,0.447l0.017,0.87l0.124,0.418
		l1.487,1.932l0.428,0.407l0.851,0.663l0.248,0.337l0.271,0.471l0.034,0.495l0.068,0.515l0.631,1.721l0.118,0.149l0.135,0.062
		l0.118-0.029l0.101-0.058l0.096,0.021l0.034,0.149l-0.028,0.345l-0.22,0.508l-0.107,0.416l0.034,0.446l-0.186,1.102l-0.017,0.479
		l0.056,0.17l0.062,0.103l0.09,0.017l0.118-0.027l0.135,0.007l0.282,0.086l0.169,0.487l0.44,0.779l0.062,0.386l0.073,0.134
		l0.152,0.07l0.163,0.033l0.068,0.07v0.24l0.068,0.103l0.107,0.038l0.18-0.01l0.034,0.103l-0.017,0.154l-0.113,0.165l0.011,0.11
		l0.107,0.065l0.197,0.026l0.225,0.002l0.169,0.041l0.135,0.014l0.203-0.017l0.079,0.079l0.135,0.617l0.073,0.182l0.028,0.165
		l0.118,0.408l0.051,0.256l-0.085,0.314l-0.265,0.724l0.011,0.154l0.208,0.324l0.118,0.31l-0.09,0.423l-0.586,0.382l-2.028,0.271
		l-19.432,0.123l-6.26,1.381l-1.369,6.452l-11.882,1.608l-1.651-0.712l-1.91-0.9l-0.986-0.209l-7.663,0.999l-3.549-0.228l-7.2-2.815
		l-14.925-6.17l-3.662-0.584l-9.212-2.644l-7.003-0.657l-1.168-0.034l-0.044-1.543l0.535-4.044l2.276-8.213l0.479-6.497l0.501-2.004
		h0.006h0.006v-0.01l2.572-3.863l1.84-2.766l0.862-2.018l0.299-2.091l-0.231-9.193l-0.259-2.196l-0.592-2.149l-4.214-9.154v-0.007
		l-0.006,0.003l-1.397-3.27l-0.214-1.162l-0.006-1.121l1.758-16.879l0.445-1.807l4.812-9.384v-0.007l0.006-0.004v-0.007l1.093-1.5
		l1.606-0.743l3.538-0.59l16.908-3.593l1.493-0.706l1.442-1.227l7.347-7.834l10.896-11.642l5.623-6.021h0.017v-0.011l3.488-3.316
		L329.673,51.369z"/>
	<path class="st2" d="M448.8,181.215l5.499,5.773l0.896,0.421l1.228,0.336l0.935-0.336l5.967,0.253l2.04,0.37l4.688,3.281
		l0.659,0.792l0.135,0.288l0.051,0.253l-0.034,0.301l-0.18,0.89l0.135,4.707l-2.58,2.366l-1.792,0.922l-1.42,0.553l-0.637,0.505
		l-0.355,0.519l-0.034,0.437l0.062,0.423l0.039,0.55l-0.225,0.729l-0.732,1.222l-1.054,1.08l-0.777,0.635l-0.671,0.286l-1.538,0.456
		l-1.115,0.633l-0.524,0.478l-0.259,0.428v0.387l0.113,0.406l0.231,0.419l0.259,0.39l0.18,0.775l-0.085,0.968l-0.856,1.818
		l-0.687,0.939l-0.778,0.749l-0.896,0.61l-0.93,0.797l-0.603,0.715l-0.355,0.66l-0.276,0.79l-0.163,0.022l-0.287-0.177l-1.989-1.796
		l-0.591-0.388l-0.479-0.228l-0.839-0.197l-1.082-0.453l-0.484-0.272l-0.225,0.119l-0.637,0.829l-0.118,0.359l-0.051,0.255
		l-0.034,0.616l0.828,2.134l-0.022,0.367l-0.135,0.497l-0.654,0.592l-0.068,0.174l0.068,0.068l0.146-0.003l0.203,0.089l0.203,0.211
		l0.242,0.52l-0.056,0.248l-0.186,0.174l-0.524,0.165l-0.214,0.02l-0.253,0.053l-0.214,0.177l-0.254,0.447l-0.039,0.245l0.039,0.104
		l0.101-0.058l0.135-0.109l0.135-0.044l0.18,0.109l-0.028,0.153l-0.118,0.182l-0.254,0.303v0.19l0.113,0.121l0.209,0.041l0.18-0.041
		l0.304-0.19l0.169-0.022l0.163,0.122l-0.034,0.179l-0.101,0.224l-0.186,0.612l-0.13,0.213l-0.366,0.386l0.062,0.238l0.13,0.323
		l0.186,0.652l-0.028,0.53l-0.366,1.227l-0.541,1.172l-0.423,0.662v0.285l0.152,0.377l0.304,0.441l0.502,0.57l0.417,0.338
		l0.389,0.214l0.631,0.788l-0.744,0.49l0.146,1.303l-0.045,0.258l-0.192,0.165l-0.27,0.097l-0.411,0.271l-0.101,0.363l0.011,1.201
		l-0.113,0.271l-0.152,0.061l-0.169-0.132l-0.304-0.344l-0.169-0.031l-0.225,0.127l-0.214,0.17l-0.186,0.112l-0.192,0.032
		l-0.625,0.029l-0.485,0.173l-0.214,0.146l-1.132,1.673l-0.22,0.476l-0.135,0.534l-0.118,0.195l-0.169,0.102l-0.175-0.017
		l-0.101-0.071l-0.017-0.097l0.135-0.31l-0.017-0.188l-0.101-0.144l-0.321,0.054l-0.186,0.232l-0.22,0.366l-0.158,0.419
		l-0.225,0.203l-0.237,0.091l-0.659-0.034l-0.502,0.112l-0.192,0.137l0.006,0.161l0.118,0.171l0.113,0.241l0.051,1.557l-0.068,0.18
		l-0.118,0.08l-0.642,0.02l-0.451,0.107l-0.22,0.188l-0.101,0.232l0.068,0.247l0.4,0.701l0.073,0.229l-0.006,0.273l-0.129,0.416
		l-0.214,0.213l-1.166,0.811l-0.09,0.215l0.287,0.45l0.073,0.323l-0.394,1.08l-0.146,0.815l-0.609,0.871l-0.034,0.316l0.011,0.543
		l0.169,0.169l0.259,0.056l0.389-0.046l0.439-0.127l1.493-0.176l1.454,0.218l0.332,0.142l0.49,0.21l2.524,2.279l0.648,0.816
		l0.423,1.019l0.175,1.252l-0.051,1.221l-0.321,1.142l-1.865,2.917l-1.014,2.794l-0.107,0.594l-0.006,0.597l0.135,0.59l0.282,0.551
		l0.366,0.467l1.082,1.092l0.135,0.266l-0.006,0.285l-0.761,1.212l-0.22,0.479l-0.806,3.526l0.625,1.5l-0.169,1.616l-0.456,1.686
		l-2.141,1.909l-0.952,0.695l-1.273,1.181l-0.811,0.972l-2.907,4.195l-4.017-0.24l-1.848-1.282l-2.028-0.602l1.825-1.422
		l-0.541-0.599l-1.194-2.058l-1.707-4.263l-1.003-1.862l-0.851-0.93l-1.899-1.728l-1.651-0.493l-9.144,0.227l-4.941-1.636
		l-6.699-2.685l-5.854-0.979l-2.885-1.076l-7.493-6.532l-8.739-8.773l-3.741-4.983l-2.857-6.936l-0.541-3.464l-0.828-3.51
		l-1.392-2.01l-0.428-1.963l-0.253-4.088l-1.031-5.633l-6.519,3.718l-1.741-0.24l-2.366-1.343l-10.581-8.685l-2.175-9.552
		l-0.079-14.455l-0.389-0.931l1.369-6.452l6.26-1.381l19.432-0.123l2.028-0.271l0.586-0.382l0.09-0.423l-0.118-0.31l-0.208-0.324
		l-0.011-0.154l0.265-0.724l0.085-0.314l-0.051-0.256l-0.118-0.408l-0.028-0.165l-0.073-0.182l-0.135-0.617l-0.079-0.079
		l-0.203,0.017l-0.135-0.014l-0.169-0.041l-0.225-0.002l-0.197-0.026l-0.107-0.065l-0.011-0.11l0.113-0.165l0.017-0.154
		l-0.034-0.103l-0.18,0.01l-0.107-0.038l-0.068-0.103v-0.24l-0.068-0.07l-0.163-0.033l-0.152-0.07l-0.073-0.134l-0.062-0.386
		l-0.44-0.779l-0.169-0.487l-0.282-0.086l-0.135-0.007l-0.118,0.027l-0.09-0.017l-0.062-0.103l-0.056-0.17l0.017-0.479l0.186-1.102
		l-0.034-0.446l0.107-0.416l0.22-0.508l0.028-0.345l-0.034-0.149l-0.096-0.021l-0.101,0.058l-0.118,0.029l-0.135-0.062l-0.118-0.149
		l-0.631-1.721l-0.068-0.515l-0.034-0.495l-0.271-0.471l-0.248-0.337l-0.851-0.663l-0.428-0.407l-1.487-1.932l-0.124-0.418
		l-0.017-0.87l-0.27-0.447l-0.118-0.506l-0.034-0.444l0.158-0.888l0.085-0.182l0.231-0.353l0.293-0.58l0.096-0.404l-0.118-0.458
		l-0.541-1.284l-0.485-0.768l0.028-0.093l0.101-0.114l0.186-0.145l0.186-0.381l0.169-0.269l0.169-0.193l0.152-0.081l0.208,0.022
		l0.197-0.007l0.169,0.024l0.118-0.04l0.09-0.067l0.096-0.021l0.135,0.016l0.186-0.016l1.549-0.699l0.676-0.445l1.268-1.075
		l0.541-0.334l0.439-0.14l0.941-0.074l6.586-4.51l3.572-1.49l1.042-0.732l1.07-0.314l0.766-0.594l0.817-1.467l0.417-0.508
		l0.783-0.25l0.727-0.06l0.547-0.297l0.208-0.967l0.113-0.496l0.53-0.49l-0.355,1.829l-0.118,0.292l-0.22,0.397l0.068,0.25
		l0.146,0.221l0.253,0.283l0.259,0.404l0.27,0.64l0.22,0.835l-0.107,0.523l-0.152,0.435l0.056,0.264l0.146,0.178l0.254,0.104
		l0.254,0.045l0.293,0.166l0.338,0.362l0.423,0.79l0.191,1.014l0.237,5.189l-0.028,0.603l-0.068,0.429l-0.231,0.889l-0.056,0.816
		l-0.062,0.356l-0.141,0.208l-0.13,0.055l-0.44,0.124l-0.997,0.551l-0.901,1.497l-0.484,0.048l-0.332-0.134l-0.304-0.484
		l-0.006-0.308l-0.051-0.294l-0.214-0.361l-0.068-0.188l-0.034-0.217l-0.158-0.262l-0.22-0.124l-0.828-0.289l-0.355,0.995
		l0.248,0.613l-0.028,0.377l-0.135,0.391l-0.085,0.668l0.118,0.635l0.254,0.349l0.254,0.191l0.118,0.167l0.265,0.502l1.386,1.525
		l0.614,0.535l1.532,0.626l0.778,0.528l0.327,0.849l-0.056,0.184l-0.152,0.074l-0.192,0.064l-0.192,0.153l-0.169,0.407l0.113,0.258
		l0.192,0.215l0.051,0.277l-0.197,0.976l-0.169,0.405l-0.344,0.435l2.794,0.469l1.133,0.529l-0.203,1.271l-0.468,0.326l-0.625,0.203
		l-0.535,0.333l-0.231,0.726l0.203,0.589l0.473,0.836l0.552,0.746l0.428,0.323l3.583,3.873l0.716,1.051l1.425,0.663l0.992,0.706
		l0.518,0.792l1.256,0.841l4.214,1.946l10.885,6.514l3.561,2.131l3.826,1.441l4.626,2.063l3.307,2.021l4.552,4.572l4.147,3.187
		l0.547,0.153l0.823-0.02l1.234-1.464l0.237-0.351l-0.022-0.16l-0.569-0.073l-0.197-0.073l-0.102-0.126l-0.017-0.16l0.096-0.294
		l-0.011-0.15l-0.203-0.428l-0.051-0.278l0.186-0.72l0.045-0.355l-0.028-0.64l0.062-0.256l0.169-0.254l0.687-0.615l0.304-0.389
		l0.192-0.372l0.186-0.663l0.856-1.21l0.631-0.345l0.192-0.248l0.084-0.21l0.006-0.174l0.079-0.161l0.254-0.407l0.039-0.219
		l-0.051-0.236l0.028-0.114l0.022-0.174l0.22-0.501l0.18-0.323l0.006-0.215l-0.017-0.166l0.017-0.125l0.045-0.154l0.068-0.547
		l0.845-1.301l1.166-1.168l1.2-1.73l0.406-0.407l0.67-0.428l0.84-0.413l1.493-1.114l0.524-0.825l0.045-0.983l-1.093-2.586
		l-0.056-0.932l0.276-1.179l0.451-0.715l0.513-0.633l0.4-0.286l0.327-0.156L448.8,181.215z"/>
	<path class="st3" d="M452.355,130.771l3.009,6.608l1.386,1.511l1.245,1.699l2.53,2.245l0.451,1.324l0.051,1.119l-0.924,1.655
		l-0.22,0.704l-0.118,1.706l-0.22,0.78l-0.169,2.398l-0.197,1.918l0.135,0.655l0.372,0.668l1.161,1.306l1.048,1.436l0.062,0.761
		l-0.282,0.931l-0.558,1.12l-1.989,2.692l-0.411,1.302l0.158,0.985l0.338,1.123l0.214,0.992l-0.231,1.029l-0.592,1.409l-0.152,0.893
		l-0.152,0.409l-0.191,0.295l-0.406,0.124l-0.501,0.278l-0.659,0.46l-0.558,0.838l-0.214,0.604l-0.034,0.568l0.084,0.493
		l0.372,0.916l-0.152,0.554l-0.575,0.561l-4.248,1.334l-2.417,2.039l-0.687,0.022l-0.327,0.156l-0.4,0.286l-0.513,0.633
		l-0.451,0.715l-0.276,1.179l0.056,0.932l1.093,2.586l-0.045,0.983l-0.524,0.825l-1.493,1.114l-0.84,0.413l-0.67,0.428l-0.406,0.407
		l-1.2,1.73l-1.166,1.168l-0.845,1.301l-0.068,0.547l-0.045,0.154l-0.017,0.125l0.017,0.166l-0.006,0.215l-0.18,0.323l-0.22,0.501
		l-0.022,0.174l-0.028,0.114l0.051,0.236l-0.039,0.219l-0.254,0.407l-0.079,0.161l-0.006,0.174l-0.084,0.21l-0.192,0.248
		l-0.631,0.345l-0.856,1.21l-0.186,0.663l-0.192,0.372l-0.304,0.389l-0.687,0.615l-0.169,0.254l-0.062,0.256l0.028,0.64
		l-0.045,0.355l-0.186,0.72l0.051,0.278l0.203,0.428l0.011,0.15l-0.096,0.294l0.017,0.16l0.102,0.126l0.197,0.073l0.569,0.073
		l0.022,0.16l-0.237,0.351l-1.234,1.464l-0.823,0.02l-0.547-0.153l-4.147-3.187l-4.552-4.572l-3.307-2.021l-4.626-2.063
		l-3.826-1.441l-3.561-2.131l-10.885-6.514l-4.214-1.946l-1.256-0.841l-0.518-0.792l-0.992-0.706l-1.425-0.663l-0.716-1.051
		l-3.583-3.873l-0.428-0.323l-0.552-0.746l-0.473-0.836l-0.203-0.589l0.231-0.726l0.535-0.333l0.625-0.203l0.468-0.326l0.203-1.271
		l-1.133-0.529l-2.794-0.469l0.344-0.435l0.169-0.405l0.197-0.976l-0.051-0.277l-0.192-0.215l-0.113-0.258l0.169-0.407l0.192-0.153
		l0.192-0.064l0.152-0.074l0.056-0.184l-0.327-0.849l-0.778-0.528l-1.532-0.626l-0.614-0.535l-1.386-1.525l-0.265-0.502
		l-0.118-0.167l-0.254-0.191l-0.254-0.349l-0.118-0.635l0.085-0.668l0.135-0.391l0.028-0.377l-0.248-0.613l0.355-0.995l0.828,0.289
		l0.22,0.124l0.158,0.262l0.034,0.217l0.068,0.188l0.214,0.361l0.051,0.294l0.006,0.308l0.304,0.484l0.332,0.134l0.484-0.048
		l0.901-1.497l0.997-0.551l2.457,1.563l0.524,0.246l1.144,0.315l0.58,0.021l0.552-0.107l1.082-0.967l0.84-0.262l2.332-0.109
		l1.065-0.174l0.862-0.487l0.473-0.79l0.637-1.93l0.53-0.722l0.738-0.338l1.217,0.031l1.82-0.153l1.769-1.068l1.161-0.102
		l0.591-0.243l0.541-0.715l0.558-1.993l0.304-1.661l0.372-0.781l0.828-1.018l0.704-0.654l0.462-0.609l0.034-0.745l-0.22-0.611
		l-0.338-0.604l-1.2-1.354l-0.349-0.306l-0.039-0.428l0.338-0.575l3.336-2.816l3.933-4.26l0.546-1.479l0.84-0.157l1.234,0.458
		l5.752,4.11l2.04-0.079l1.161-0.214l0.507-0.318l0.479-0.992l0.794-2.129l1.256-0.488l0.913-0.182l2.992,0.585l1.194,0.228
		l1.031,0.526l0.315,0.069l0.445-0.031l0.535-0.138l0.783-0.424l0.315-0.282l0.265-0.419l0.208-0.01l0.671,0.342l0.321,0.093
		l0.862,0.142l0.242,0.112l0.169,0.043l0.163-0.031l0.282-0.578l0.186-0.142l1.02-0.438l0.304-0.185l0.237-0.235l0.287-0.201
		l0.406-0.048l0.682,0.114l0.473-0.003l1.166-0.682l1.2,0.376l0.147,0.189l0.158,0.087l0.248-0.036l0.473-0.27l0.327-0.092
		l0.4,0.145l0.225,0.239l0.349,0.516l0.208,0.13l0.197-0.04l0.101-0.311l-0.034-0.228l-0.068-0.215l-0.051-0.225l0.034-0.215
		l0.208-0.151l0.214-0.052l0.575,0.374l0.22,0.042l0.27-0.291l0.22-0.306l0.321-0.341l0.456-0.376l0.197-0.329l0.203-0.509
		l0.158-0.222l0.253-0.173l0.586-0.289l0.18,0.033l0.169,0.239v0.644L452.355,130.771z"/>
	<path class="st7" d="M445.678,309.292l-9.048-0.459l-1.397-0.392l-0.699-0.109l-0.716,0.107l-0.637-0.689l-1.459-0.915l-0.637-0.63
		l-0.541-1.118l-0.259-1.319l-0.011-1.363l0.22-1.25l0.648-1.275l1.724-1.849l0.518-1.266l-0.006-0.332l-0.073-0.288l2.834-0.771
		l0.716-2.287l0.372-0.447l0.315,0.057l3.904,0.161l0.541,0.108l1.087,0.593l2.034,1.795l1.713-1.308l0.186,0.18l0.225,0.296
		l0.079,0.736l0.135,0.589l0.293,0.912l0.034,0.188l-0.034,0.097l-0.034,0.151l-0.051,0.782l-0.276,0.631l0.073,1.926l0.062,1.961
		l-0.13,0.481l-0.169,0.431l-0.259,0.161l-0.197-0.015l-0.017-0.179l0.135-0.201v-0.587l-0.378,1.038l0.124,0.543l0.214,0.456
		l0.023,0.277l-0.068,0.251l-0.338,0.406l-0.169,0.166l-0.524,0.768L445.678,309.292z"/>
	<path class="st2" d="M445.678,309.292l-0.022,0.765l0.682,1.376l0.975,2.483l0.428,1.598l0.203,1.367l-0.023,2.522l-0.321,0.9
		l-0.913,0.521l0.411,1.927l0.186,6.551l0.332,1.592l0.361,1.021l0.378,0.354l0.259,0.204l0.332,0.125l7.719,0.545l0.372,0.088
		l3.465,1.979l2.755,0.872l1.989,0.19l0.473,0.157l0.287,0.492l1.769,0.748l1.403,0.79l0.777,0.62l0.738,0.811l0.338,0.7l2.333,7.72
		l2.13,4.787l0.952,1.202l1.048,1.05l0.879,0.611l0.913,0.264l3.257,0.144l0.704,0.01l0.152,2.018l0.09,1.335l-0.8-0.042
		l-0.468,0.124l-0.772,0.301l-2.434,1.474l-0.653,0.488l-0.665,0.805l-0.372,0.347l-4.688,3.127l-3.505,1.424l-2.389,1.827
		l-1.6,1.513l-0.372,0.212l-0.338-0.166l-0.62-0.631l-0.315-0.263l-0.327-0.032l-0.4,0.184l-0.53,0.57l-0.315,0.563l-0.158,0.446
		l0.09,0.297l0.237,0.273l0.434,0.391l0.073,0.588l-0.039,0.47l-0.231,0.351l-0.293,0.242l-0.823,0.488l-0.321,0.262l-1.048,1.285
		l-0.366,0.343l-0.456,0.253l-0.513,0.167l-0.654,0.008l-0.71-0.262l-3.014-1.829l-1.64-0.52l-2.766-0.902l-1.623-0.928
		l-1.217-1.027l-1.487-0.787l-2.682,1.918l-0.423-0.045l-0.451,0.089l-0.248-0.015l-1.133,0.772l-1.938,1.851l-0.828-1.106
		l-0.271-0.547l-0.406-0.623l-0.355-0.414l-1.031-1.65l-0.434-1.191l-0.085-0.699l0.4-0.646l1.318-0.743l0.22-1.098l-0.338-0.34
		l-0.372-0.615l-0.772-3.075l-0.175-0.694l-1.132-2.227l-0.406-1.342l0.271-1.056l0.518-1.282l-0.383-1.289l-3.071-4.488
		l-0.901-2.187l-0.124-2.408l1.927-6.994l0.507-0.535l-0.034-0.73l-0.017-0.382l-0.22-0.51l-1.324-1.344l-0.372-0.278l-0.332-0.135
		l-0.254,0.013l-0.287,0.122l-0.586,0.325l-0.254,0.04l-0.287-0.04l-1.904-0.515l-1.51-0.225l0.614-6.144l-2.378-1.654l-1.493-1.7
		l-0.676-1.741l-0.969-4.845l-1.307-3.842l-1.662-1.664l-5.302-2.669l-2.688-0.668l-0.727-0.909l-0.273-1.368l1.845-0.251
		l2.473,0.325l4.828,1.275l5.183,0.033l1.313,0.184l1.358,0.409l3.488,2.056l1.194,0.367l1.149-0.328l0.992-0.976l1.628-2.281
		l0.716-0.107l0.699,0.109l1.397,0.392L445.678,309.292z"/>
	<path class="st4" d="M483.489,359.732l3.155,0.427l0.349,1.022l1.369,0.584l3.848,0.46l0.625,0.959l1.2,0.36l0.197,0.531
		l-0.09,0.605l-0.721,1.728l-0.135,0.909l0.293,0.963l0.817,0.948l5.42,5.109l0.997,1.334l0.671,1.205l0.524,0.791l0.868,0.566
		l3.437,1.267l3.758,1.107l0.169,0.776l-0.4,0.342l-0.203,0.293l0.028,0.402l2.569,5.937l-0.366,1.573l-0.085,0.915l0.051,1.318
		l2.175,6.664l1.499,8.442l-0.451,0.487l-1.183,0.395l-2.327,0.031l-9.651-3.157l-13.302-2.607l-3.921-0.13l-0.558,0.961
		l-8.823,2.11l-1.262,0.145l0.62,0.634l0.524,0.288l0.969,0.361l0.372,0.221l0.338,0.568l0.253,0.738l0.366,0.637l1.206,0.558
		l-0.085,0.953l-0.839,2.289l-1.696,3.322l-3.42,9.32L471.489,432l-4.417-2.371l-9.285-6.826l-10.485-4.313l-1.014-0.657
		l-3.549-4.186l-1.177-2.158l0.27-1.491l1.211-1.368l1.155-0.28l1.493,0.573l0.935,0.548l1.065-1.516l-0.727-4.765l0.034-4.022
		l0.22-2.075l-1.826-9.049l0.383-2.006l0.456-1.549l0.439-0.646l1.065-0.427l1.989-1.326l1.572-0.595l0.287-0.198l0.011-0.286
		l-0.327-0.419l-0.479-0.384l-0.332-0.321l-0.254-0.399L450,379.062l-0.006-0.391l0.141-0.334l0.552-0.346l0.338-0.069l0.259-0.01
		l0.231-0.267l0.18-0.258l0.8-2.577l1.64,0.52l3.014,1.829l0.71,0.262l0.654-0.008l0.513-0.167l0.456-0.253l0.366-0.343l1.048-1.285
		l0.321-0.262l0.823-0.488l0.293-0.242l0.231-0.351l0.039-0.47l-0.073-0.588l-0.434-0.391l-0.237-0.273l-0.09-0.297l0.158-0.446
		l0.315-0.563l0.53-0.57l0.4-0.184l0.327,0.032l0.315,0.263l0.62,0.631l0.338,0.166l0.372-0.212l1.6-1.513l2.389-1.827l3.505-1.424
		l4.688-3.127l0.372-0.347l0.665-0.805l0.653-0.488l2.434-1.474l0.772-0.301l0.468-0.124L483.489,359.732z"/>
	<path class="st0" d="M515.508,407.269l-1.499-8.442l-2.175-6.664l-0.051-1.318l0.085-0.915l0.366-1.573l5.465,0.349l3.341-1.396
		l0.293,0.005l0.254,0.207l0.214-0.015l0.214-0.122l0.242-0.268l0.146-0.069l0.141,0.06l0.146,0.162l0.27,0.2l0.259-0.056
		l1.887-1.413l0.451-0.144l0.479,0.043l0.507,0.155l0.845,0.164l0.394-0.012l0.242-0.127l0.203-0.486l0.282-0.253l1.814-0.618
		l14.164-0.051l1.217,1.213l0.67,0.878l0.09,0.539l-0.896,0.233l-0.907,0.542l-0.53,1.074l1.426,3.037l4.214,6.966l-0.073,1.5
		l-0.186,0.861l1.256,3.226l2.135,2.401l1.69,0.976l0.327,0.357l1.696,2.726l0.896,0.905l1.752,1.464l0.58,0.701l0.4,1.008
		l0.141,0.985l-0.203,1.284l-0.293,0.784l-0.569,1.155l-0.068,0.827l0.034,0.591l0.879,2.625l4.851,3.017l0.665,0.514l0.62,0.617
		l0.693,0.935l0.327,0.643l0.175,0.564l0.056,0.566l-0.023,0.702l-0.242,2.258l-0.006,0.669l0.068,0.606l0.118,0.526l0.197,0.452
		l0.377,0.495l2.361,1.9l0.755,0.729l2.135,1.112l5.73-0.087l9.55,0.676l0.468,5.254l-0.687,13.158l-1.386,7.142l-0.338,1.798
		l-0.079,1.41l0.299,4.603l-0.332,1.767l-1.651,0.306l-7.561-1.374l-0.997-0.034l-17.798,4.863l-1.803,0.43l-0.727-0.031
		l-0.71-0.545l-0.586-0.817l-2.254-4.623l-5.003-8.245l-8.761-3.081l-26.757-3.494l-0.755-8.831l0.315-1.385l0.225-1.879
		l0.299-1.166l0.259-1.623l0.417-0.856l0.828-0.093l1.099,0.389l0.67-0.103l0.383-0.651l0.321-1.946l0.068-1.11l-0.18-0.644
		l-0.327-0.16l-0.44-0.202l-0.648-0.518l-0.208-0.233l-1.054-0.428l-0.13-0.678l0.614-2.04l3.133-7.386l-3.003-0.128l-1.527-0.269
		l-0.141-0.89l0.603-1.17l3.752-4.7l0.186-0.734l-0.068-0.841l-0.372-1.945l-0.287-0.723l-0.31-0.419l-0.315-0.074l-0.287-0.114
		l-0.186-0.368l-0.017-0.571l0.344-1.375l0.27-0.497l0.31-0.237l0.304,0.117l0.287,0.179l0.547,0.429l0.237,0.056l0.214-0.086
		l0.118-0.311l0.051-0.466l-0.079-0.847l0.034-0.892l0.068-0.305l-0.304-0.935L515.508,407.269z"/>
	<path class="st4" d="M425.227,334.831l1.51,0.225l1.904,0.515l0.287,0.04l0.254-0.04l0.586-0.325l0.287-0.122l0.254-0.013
		l0.332,0.135l0.372,0.278l1.324,1.344l0.22,0.51l0.017,0.382l0.034,0.73l-0.507,0.535l-1.927,6.994l0.124,2.408l0.901,2.187
		l3.071,4.488l0.383,1.289l-0.518,1.282l-0.271,1.056l0.406,1.342l1.132,2.227l0.175,0.694l-0.659,1.611l-0.09,0.391l-0.248,0.715
		l-0.259,0.348l-0.456-0.277l-0.653-0.576l-1.42,0.169l-5.088,1.584l-25.41,7.278l-2.631-2.243l-8.992-6.723l-12.84-12.975
		l-1.318-1.967l-0.378-1.949l2.902-1.532l2.558-0.97l6.677-0.942l1.161-0.163l0.597-0.17l1.476-0.967l10.198-8.995l4.321-2.108
		l4.614-0.576l6.243-0.005L425.227,334.831z"/>
</g>
<g id="Copyright">
	<text transform="matrix(1 0 0 1 681.6426 577.5913)" class="st8 st9"> Vemaps.com</text>
</g>
</svg>
